<?xml version="1.0" encoding="utf-8"?>
<!-- Generator: Adobe Illustrator 16.0.0, SVG Export Plug-In . SVG Version: 6.00 Build 0)  -->
<!DOCTYPE svg PUBLIC "-//W3C//DTD SVG 1.1//EN" "http://www.w3.org/Graphics/SVG/1.1/DTD/svg11.dtd">
<svg version="1.1" id="图层_1" xmlns="http://www.w3.org/2000/svg" xmlns:xlink="http://www.w3.org/1999/xlink" x="0px" y="0px"
	 width="700px" height="526px" viewBox="0 0 700 526" enable-background="new 0 0 700 526" xml:space="preserve">
<g>
	<g>
		<g>
			<defs>
				<rect id="SVGID_1_" x="0" y="0" width="700" height="526"/>
			</defs>
			<clipPath id="SVGID_2_">
				<use xlink:href="#SVGID_1_"  overflow="visible"/>
			</clipPath>
			<rect x="0" y="0" clip-path="url(#SVGID_2_)" fill="#FFFFFF" width="700" height="526"/>
		</g>
	</g>
	<g>
		<rect x="0" y="0" fill="#FFFFFF" width="700" height="526"/>
		<path fill="#FFFFFF" d="M91,468h543V39H91V468z"/>
	</g>
	<g>
		
			<line fill="none" stroke="#262626" stroke-width="1.8333" stroke-linecap="square" stroke-linejoin="round" stroke-miterlimit="10" x1="91" y1="468" x2="634" y2="468"/>
		
			<line fill="none" stroke="#262626" stroke-width="1.8333" stroke-linecap="square" stroke-linejoin="round" stroke-miterlimit="10" x1="91" y1="39" x2="634" y2="39"/>
		
			<line fill="none" stroke="#262626" stroke-width="1.8333" stroke-linecap="square" stroke-linejoin="round" stroke-miterlimit="10" x1="91" y1="468" x2="91" y2="462.57"/>
		
			<line fill="none" stroke="#262626" stroke-width="1.8333" stroke-linecap="square" stroke-linejoin="round" stroke-miterlimit="10" x1="275.62" y1="468" x2="275.62" y2="462.57"/>
		
			<line fill="none" stroke="#262626" stroke-width="1.8333" stroke-linecap="square" stroke-linejoin="round" stroke-miterlimit="10" x1="362.5" y1="468" x2="362.5" y2="462.57"/>
		
			<line fill="none" stroke="#262626" stroke-width="1.8333" stroke-linecap="square" stroke-linejoin="round" stroke-miterlimit="10" x1="416.8" y1="468" x2="416.8" y2="462.57"/>
		
			<line fill="none" stroke="#262626" stroke-width="1.8333" stroke-linecap="square" stroke-linejoin="round" stroke-miterlimit="10" x1="634" y1="468" x2="634" y2="462.57"/>
		
			<line fill="none" stroke="#262626" stroke-width="1.8333" stroke-linecap="square" stroke-linejoin="round" stroke-miterlimit="10" x1="91" y1="39" x2="91" y2="44.43"/>
		
			<line fill="none" stroke="#262626" stroke-width="1.8333" stroke-linecap="square" stroke-linejoin="round" stroke-miterlimit="10" x1="275.62" y1="39" x2="275.62" y2="44.43"/>
		
			<line fill="none" stroke="#262626" stroke-width="1.8333" stroke-linecap="square" stroke-linejoin="round" stroke-miterlimit="10" x1="362.5" y1="39" x2="362.5" y2="44.43"/>
		
			<line fill="none" stroke="#262626" stroke-width="1.8333" stroke-linecap="square" stroke-linejoin="round" stroke-miterlimit="10" x1="416.8" y1="39" x2="416.8" y2="44.43"/>
		
			<line fill="none" stroke="#262626" stroke-width="1.8333" stroke-linecap="square" stroke-linejoin="round" stroke-miterlimit="10" x1="634" y1="39" x2="634" y2="44.43"/>
	</g>
	<g transform="translate(91,474.6667)">
		<text transform="matrix(1 0 0 1 -4.9998 18.0001)" fill="#262626" font-family="'ArialMT'" font-size="16.6667">0</text>
	</g>
	<g transform="translate(275.62,474.6667)">
		<text transform="matrix(1 0 0 1 -16.9996 18.0001)" fill="#262626" font-family="'ArialMT'" font-size="16.6667">0.34</text>
	</g>
	<g transform="translate(362.5,474.6667)">
		<text transform="matrix(1 0 0 1 -12.0002 18.0001)" fill="#262626" font-family="'ArialMT'" font-size="16.6667">0.5</text>
	</g>
	<g transform="translate(416.8,474.6667)">
		<text transform="matrix(1 0 0 1 -11.9995 18.0001)" fill="#262626" font-family="'ArialMT'" font-size="16.6667">0.6</text>
	</g>
	<g transform="translate(634,474.6667)">
		<text transform="matrix(1 0 0 1 -5.0002 18.0001)" fill="#262626" font-family="'ArialMT'" font-size="16.6667">1</text>
	</g>
	<g>
		
			<line fill="none" stroke="#262626" stroke-width="1.8333" stroke-linecap="square" stroke-linejoin="round" stroke-miterlimit="10" x1="91" y1="468" x2="91" y2="39"/>
		
			<line fill="none" stroke="#262626" stroke-width="1.8333" stroke-linecap="square" stroke-linejoin="round" stroke-miterlimit="10" x1="634" y1="468" x2="634" y2="39"/>
		<path fill="none" stroke="#000000" stroke-width="1.8333" stroke-linejoin="round" stroke-miterlimit="10" d="M91,468h271.5H634"
			/>
	</g>
	<g transform="translate(275.62,468)">
		<circle fill="#D95319" cx="0" cy="0" r="4.889"/>
	</g>
	<g transform="translate(275.62,468)">
		<path fill="#D95319" d="M0-4.472C2.47-4.472,4.473-2.47,4.473,0l0,0C4.473,2.47,2.47,4.472,0,4.472S-4.472,2.47-4.472,0
			C-4.472-2.47-2.47-4.472,0-4.472z M0-5.305C-2.93-5.305-5.306-2.93-5.306,0C-5.306,2.93-2.93,5.305,0,5.305
			C2.931,5.305,5.306,2.93,5.306,0l0,0C5.306-2.93,2.931-5.305,0-5.305z"/>
	</g>
	<g transform="translate(416.8,468)">
		<circle fill="#EDB120" cx="0" cy="0" r="4.889"/>
	</g>
	<g transform="translate(416.8,468)">
		<path fill="#EDB120" d="M0-4.472C2.47-4.472,4.472-2.47,4.472,0l0,0C4.472,2.47,2.47,4.472,0,4.472
			C-2.47,4.472-4.472,2.47-4.472,0C-4.472-2.47-2.47-4.472,0-4.472z M0-5.305C-2.93-5.305-5.305-2.93-5.305,0
			C-5.305,2.93-2.93,5.305,0,5.305C2.93,5.305,5.306,2.93,5.306,0l0,0C5.306-2.93,2.93-5.305,0-5.305z"/>
	</g>
</g>
<g>
	<g>
		<g>
			<g>
				<polygon fill="none" points="281.893,462.681 281.893,466.631 281.893,467.666 281.893,468.304 281.893,469.404 
					281.893,473.318 292.302,473.318 292.302,469.404 292.302,468.304 292.302,467.666 292.302,466.631 292.302,462.681 				"/>
				<rect x="280.926" y="468.37" fill="#C30D23" width="11.738" height="0.39"/>
				<polygon fill="#C30D23" points="292.663,467.666 292.663,467.341 280.926,467.341 280.926,467.666 280.926,467.73 
					292.663,467.73 				"/>
				<polygon fill="#E60012" points="292.663,468.304 292.663,467.73 280.926,467.73 280.926,468.304 280.926,468.37 292.663,468.37 
									"/>
				<rect x="280.926" y="466.631" fill="#050000" width="1.692" height="2.838"/>
				<rect x="282.444" y="466.614" fill="#C30D23" width="0.834" height="2.839"/>
				<polygon fill="#050000" points="292.663,469.404 292.663,468.758 280.926,468.76 280.926,469.404 280.926,469.469 
					292.663,469.468 				"/>
				<rect x="280.926" y="466.631" fill="#050000" width="11.738" height="0.71"/>
			</g>
			<g>
				<polygon fill="none" points="293.327,462.681 293.327,466.631 293.327,467.666 293.327,468.304 293.327,469.404 
					293.327,473.318 303.737,473.318 303.737,469.404 303.737,468.304 303.737,467.666 303.737,466.631 303.737,462.681 				"/>
				<g>
					<polygon fill="#050000" points="304.401,469.404 304.401,468.758 292.663,468.76 292.663,469.404 292.663,469.469 
						304.401,469.468 					"/>
					<rect x="292.663" y="466.631" fill="#050000" width="11.737" height="0.71"/>
					<rect x="292.663" y="468.37" fill="#C30D23" width="11.737" height="0.39"/>
					<polygon fill="#C30D23" points="304.401,467.666 304.401,467.341 292.663,467.341 292.663,467.666 292.663,467.73 
						304.401,467.73 					"/>
					<polygon fill="#E60012" points="304.401,468.304 304.401,467.73 292.663,467.73 292.663,468.304 292.663,468.37 
						304.401,468.37 					"/>
				</g>
			</g>
			<g>
				<polygon fill="none" points="305.065,462.681 305.065,466.631 305.065,467.666 305.065,468.304 305.065,469.404 
					305.065,473.318 315.474,473.318 315.474,469.404 315.474,468.304 315.474,467.666 315.474,466.631 315.474,462.681 				"/>
				<g>
					<polygon fill="#050000" points="316.138,469.404 316.138,468.758 304.401,468.76 304.401,469.404 304.401,469.469 
						316.138,469.468 					"/>
					<rect x="304.401" y="466.631" fill="#050000" width="11.738" height="0.71"/>
					<rect x="304.401" y="468.37" fill="#C30D23" width="11.738" height="0.39"/>
					<polygon fill="#C30D23" points="316.138,467.666 316.138,467.341 304.401,467.341 304.401,467.666 304.401,467.73 
						316.138,467.73 					"/>
					<polygon fill="#E60012" points="316.138,468.304 316.138,467.73 304.401,467.73 304.401,468.304 304.401,468.37 
						316.138,468.37 					"/>
				</g>
			</g>
			<g>
				<polygon fill="none" points="316.802,462.681 316.802,466.631 316.802,467.666 316.802,468.304 316.802,469.404 
					316.802,473.318 327.212,473.318 327.212,469.404 327.212,468.304 327.212,467.666 327.212,466.631 327.212,462.681 				"/>
				<g>
					<polygon fill="#050000" points="327.876,469.404 327.876,468.758 316.138,468.76 316.138,469.404 316.138,469.469 
						327.876,469.468 					"/>
					<rect x="316.138" y="466.631" fill="#050000" width="11.738" height="0.71"/>
					<rect x="316.138" y="468.37" fill="#C30D23" width="11.738" height="0.39"/>
					<polygon fill="#C30D23" points="327.876,467.666 327.876,467.341 316.138,467.341 316.138,467.666 316.138,467.73 
						327.876,467.73 					"/>
					<polygon fill="#E60012" points="327.876,468.304 327.876,467.73 316.138,467.73 316.138,468.304 316.138,468.37 
						327.876,468.37 					"/>
				</g>
			</g>
			<g>
				<polygon fill="none" points="328.54,462.681 328.54,466.631 328.54,467.666 328.54,468.304 328.54,469.404 328.54,473.318 
					338.949,473.318 338.949,469.404 338.949,468.304 338.949,467.666 338.949,466.631 338.949,462.681 				"/>
				<g>
					<polygon fill="#050000" points="339.614,469.404 339.614,468.758 327.876,468.76 327.876,469.404 327.876,469.469 
						339.614,469.468 					"/>
					<rect x="327.876" y="466.631" fill="#050000" width="11.737" height="0.71"/>
					<rect x="327.876" y="468.37" fill="#C30D23" width="11.737" height="0.39"/>
					<polygon fill="#C30D23" points="339.614,467.666 339.614,467.341 327.876,467.341 327.876,467.666 327.876,467.73 
						339.614,467.73 					"/>
					<polygon fill="#E60012" points="339.614,468.304 339.614,467.73 327.876,467.73 327.876,468.304 327.876,468.37 
						339.614,468.37 					"/>
				</g>
			</g>
			<g>
				<polygon fill="none" points="340.278,462.681 340.278,466.631 340.278,467.666 340.278,468.304 340.278,469.404 
					340.278,473.318 350.687,473.318 350.687,469.404 350.687,468.304 350.687,467.666 350.687,466.631 350.687,462.681 				"/>
				<g>
					<polygon fill="#050000" points="351.351,469.404 351.351,468.758 339.614,468.76 339.614,469.404 339.614,469.469 
						351.351,469.468 					"/>
					<rect x="339.614" y="466.631" fill="#050000" width="11.738" height="0.71"/>
					<rect x="339.614" y="468.37" fill="#C30D23" width="11.738" height="0.39"/>
					<polygon fill="#C30D23" points="351.351,467.666 351.351,467.341 339.614,467.341 339.614,467.666 339.614,467.73 
						351.351,467.73 					"/>
					<polygon fill="#E60012" points="351.351,468.304 351.351,467.73 339.614,467.73 339.614,468.304 339.614,468.37 
						351.351,468.37 					"/>
				</g>
			</g>
			<g>
				<polygon fill="none" points="352.09,469.404 352.09,473.318 362.5,473.318 362.5,462.681 352.09,462.681 352.09,466.573 				"/>
				<g>
					<polygon fill="#050000" points="357.592,469.34 357.592,468.695 351.351,468.695 351.351,469.34 351.351,469.404 
						357.592,469.404 					"/>
					<rect x="351.351" y="466.566" fill="#050000" width="6.24" height="0.711"/>
					<rect x="351.351" y="468.304" fill="#C30D23" width="6.24" height="0.391"/>
					<polygon fill="#C30D23" points="357.592,467.601 357.592,467.277 351.351,467.277 351.351,467.601 351.351,467.667 
						357.592,467.667 					"/>
					<polygon fill="#E60012" points="357.592,468.24 357.592,467.667 351.351,467.667 351.351,468.24 351.351,468.304 
						357.592,468.304 					"/>
				</g>
				<rect x="352.09" y="462.681" fill="none" width="10.41" height="10.637"/>
				<line fill="none" x1="362.387" y1="468" x2="354.471" y2="472.67"/>
				<polygon fill="#050000" points="354.796,467.278 354.796,464.459 360.793,467.995 354.796,471.534 354.796,468.695 
					354.471,468.695 354.471,469.404 354.471,472.67 362.387,468 354.471,463.331 354.471,466.57 354.471,467.278 				"/>
				<path fill="#C30D23" d="M354.796,471.534l5.997-3.539l-5.997-3.536v2.819v0.388h0.131c0.13-0.372,0.474-0.641,0.883-0.641
					c0.519,0,0.94,0.43,0.94,0.961c0,0.529-0.422,0.959-0.94,0.959c-0.409,0-0.753-0.268-0.883-0.641h-0.131v0.391V471.534z"/>
				<path fill="#E60012" d="M355.809,468.945c0.519,0,0.94-0.43,0.94-0.959c0-0.531-0.422-0.961-0.94-0.961
					c-0.409,0-0.753,0.269-0.883,0.641c-0.035,0.1-0.058,0.207-0.058,0.32c0,0.111,0.022,0.217,0.058,0.318
					C355.056,468.677,355.4,468.945,355.809,468.945z"/>
			</g>
		</g>
	</g>
</g>
<g>
	<g>
		<g>
			<g>
				<polygon fill="none" points="410.472,473.318 410.472,469.369 410.472,468.334 410.472,467.695 410.472,466.595 
					410.472,462.681 399.471,462.681 399.471,466.595 399.471,467.695 399.471,468.334 399.471,469.369 399.471,473.318 				"/>
				<rect x="399.091" y="467.24" fill="#FFE400" width="12.404" height="0.39"/>
				<polygon fill="#FFE400" points="399.091,468.334 399.091,468.659 411.495,468.659 411.495,468.334 411.495,468.269 
					399.091,468.269 				"/>
				<polygon fill="#F4F5F5" points="399.091,467.695 399.091,468.269 411.495,468.269 411.495,467.695 411.495,467.63 
					399.091,467.63 				"/>
				<rect x="409.707" y="466.531" fill="#050000" width="1.788" height="2.838"/>
				<rect x="409.009" y="466.547" fill="#FFE400" width="0.882" height="2.839"/>
				<polygon fill="#050000" points="399.091,466.595 399.091,467.242 411.495,467.24 411.495,466.595 411.495,466.531 
					399.091,466.532 				"/>
				<rect x="399.091" y="468.659" fill="#050000" width="12.404" height="0.71"/>
			</g>
			<g>
				<polygon fill="none" points="398.388,473.318 398.388,469.369 398.388,468.334 398.388,467.695 398.388,466.595 
					398.388,462.681 387.388,462.681 387.388,466.595 387.388,467.695 387.388,468.334 387.388,469.369 387.388,473.318 				"/>
				<g>
					<polygon fill="#050000" points="386.686,466.595 386.686,467.242 399.091,467.24 399.091,466.595 399.091,466.531 
						386.686,466.532 					"/>
					<rect x="386.686" y="468.659" fill="#050000" width="12.404" height="0.71"/>
					<rect x="386.686" y="467.24" fill="#FFE400" width="12.404" height="0.39"/>
					<polygon fill="#FFE400" points="386.686,468.334 386.686,468.659 399.091,468.659 399.091,468.334 399.091,468.269 
						386.686,468.269 					"/>
					<polygon fill="#F4F5F5" points="386.686,467.695 386.686,468.269 399.091,468.269 399.091,467.695 399.091,467.63 
						386.686,467.63 					"/>
				</g>
			</g>
			<g>
				<polygon fill="none" points="385.984,473.318 385.984,469.369 385.984,468.334 385.984,467.695 385.984,466.595 
					385.984,462.681 374.983,462.681 374.983,466.595 374.983,467.695 374.983,468.334 374.983,469.369 374.983,473.318 				"/>
				<g>
					<polygon fill="#050000" points="374.281,466.595 374.281,467.242 386.686,467.24 386.686,466.595 386.686,466.531 
						374.281,466.532 					"/>
					<rect x="374.281" y="468.659" fill="#050000" width="12.405" height="0.71"/>
					<rect x="374.281" y="467.24" fill="#FFE400" width="12.405" height="0.39"/>
					<polygon fill="#FFE400" points="374.281,468.334 374.281,468.659 386.686,468.659 386.686,468.334 386.686,468.269 
						374.281,468.269 					"/>
					<polygon fill="#F4F5F5" points="374.281,467.695 374.281,468.269 386.686,468.269 386.686,467.695 386.686,467.63 
						374.281,467.63 					"/>
				</g>
			</g>
			<g>
				<polygon fill="none" points="373.502,466.595 373.502,462.681 362.5,462.681 362.5,473.318 373.502,473.318 373.502,469.427 
									"/>
				<g>
					<polygon fill="#050000" points="367.687,466.66 367.687,467.304 374.281,467.304 374.281,466.66 374.281,466.595 
						367.687,466.595 					"/>
					<rect x="367.687" y="468.722" fill="#050000" width="6.594" height="0.711"/>
					<rect x="367.687" y="467.304" fill="#FFE400" width="6.594" height="0.391"/>
					<polygon fill="#FFE400" points="367.687,468.398 367.687,468.722 374.281,468.722 374.281,468.398 374.281,468.333 
						367.687,468.333 					"/>
					<polygon fill="#F4F5F5" points="367.687,467.76 367.687,468.333 374.281,468.333 374.281,467.76 374.281,467.695 
						367.687,467.695 					"/>
				</g>
				<rect x="362.5" y="462.681" fill="none" width="11.002" height="10.637"/>
				<line fill="none" x1="362.618" y1="468" x2="370.984" y2="463.33"/>
				<polygon fill="#050000" points="370.642,468.721 370.642,471.541 364.303,468.005 370.642,464.466 370.642,467.304 
					370.984,467.304 370.984,466.595 370.984,463.33 362.618,468 370.984,472.669 370.984,469.429 370.984,468.721 				"/>
				<path fill="#FFE400" d="M370.642,464.466l-6.339,3.539l6.339,3.536v-2.819v-0.388h-0.14c-0.137,0.372-0.5,0.641-0.933,0.641
					c-0.548,0-0.993-0.43-0.993-0.961c0-0.529,0.445-0.959,0.993-0.959c0.433,0,0.796,0.268,0.933,0.641h0.14v-0.391V464.466z"/>
				<path fill="#F4F5F5" d="M369.57,467.054c-0.548,0-0.993,0.43-0.993,0.959c0,0.531,0.445,0.961,0.993,0.961
					c0.433,0,0.796-0.269,0.933-0.641c0.037-0.1,0.061-0.207,0.061-0.32c0-0.111-0.023-0.217-0.061-0.318
					C370.366,467.322,370.003,467.054,369.57,467.054z"/>
			</g>
		</g>
	</g>
</g>
</svg>
