<?xml version="1.0" encoding="utf-8"?>
<!-- Generator: Adobe Illustrator 16.0.0, SVG Export Plug-In . SVG Version: 6.00 Build 0)  -->
<!DOCTYPE svg PUBLIC "-//W3C//DTD SVG 1.1//EN" "http://www.w3.org/Graphics/SVG/1.1/DTD/svg11.dtd">
<svg version="1.1" id="图层_1" xmlns="http://www.w3.org/2000/svg" xmlns:xlink="http://www.w3.org/1999/xlink" x="0px" y="0px"
	 width="700px" height="526px" viewBox="0 0 700 526" enable-background="new 0 0 700 526" xml:space="preserve">
<g>
	<g>
		<g>
			<g>
				<defs>
					<rect id="SVGID_1_" x="0" y="0" width="700" height="526"/>
				</defs>
				<clipPath id="SVGID_2_">
					<use xlink:href="#SVGID_1_"  overflow="visible"/>
				</clipPath>
				<rect x="0" y="0" clip-path="url(#SVGID_2_)" fill="#FFFFFF" width="700" height="526"/>
			</g>
		</g>
		<g>
			<rect x="0" y="0" fill="#FFFFFF" width="700" height="526"/>
			<path fill="#FFFFFF" d="M91,468h543V39H91V468z"/>
		</g>
		<g>
			
				<line fill="none" stroke="#262626" stroke-width="1.8333" stroke-linecap="square" stroke-linejoin="round" stroke-miterlimit="10" x1="91" y1="468" x2="634" y2="468"/>
			
				<line fill="none" stroke="#262626" stroke-width="1.8333" stroke-linecap="square" stroke-linejoin="round" stroke-miterlimit="10" x1="91" y1="39" x2="634" y2="39"/>
			
				<line fill="none" stroke="#262626" stroke-width="1.8333" stroke-linecap="square" stroke-linejoin="round" stroke-miterlimit="10" x1="91" y1="468" x2="91" y2="462.57"/>
			
				<line fill="none" stroke="#262626" stroke-width="1.8333" stroke-linecap="square" stroke-linejoin="round" stroke-miterlimit="10" x1="226.75" y1="468" x2="226.75" y2="462.57"/>
			
				<line fill="none" stroke="#262626" stroke-width="1.8333" stroke-linecap="square" stroke-linejoin="round" stroke-miterlimit="10" x1="275.62" y1="468" x2="275.62" y2="462.57"/>
			
				<line fill="none" stroke="#262626" stroke-width="1.8333" stroke-linecap="square" stroke-linejoin="round" stroke-miterlimit="10" x1="362.5" y1="468" x2="362.5" y2="462.57"/>
			
				<line fill="none" stroke="#262626" stroke-width="1.8333" stroke-linecap="square" stroke-linejoin="round" stroke-miterlimit="10" x1="416.8" y1="468" x2="416.8" y2="462.57"/>
			
				<line fill="none" stroke="#262626" stroke-width="1.8333" stroke-linecap="square" stroke-linejoin="round" stroke-miterlimit="10" x1="498.25" y1="468" x2="498.25" y2="462.57"/>
			
				<line fill="none" stroke="#262626" stroke-width="1.8333" stroke-linecap="square" stroke-linejoin="round" stroke-miterlimit="10" x1="634" y1="468" x2="634" y2="462.57"/>
			
				<line fill="none" stroke="#262626" stroke-width="1.8333" stroke-linecap="square" stroke-linejoin="round" stroke-miterlimit="10" x1="91" y1="39" x2="91" y2="44.43"/>
			
				<line fill="none" stroke="#262626" stroke-width="1.8333" stroke-linecap="square" stroke-linejoin="round" stroke-miterlimit="10" x1="226.75" y1="39" x2="226.75" y2="44.43"/>
			
				<line fill="none" stroke="#262626" stroke-width="1.8333" stroke-linecap="square" stroke-linejoin="round" stroke-miterlimit="10" x1="275.62" y1="39" x2="275.62" y2="44.43"/>
			
				<line fill="none" stroke="#262626" stroke-width="1.8333" stroke-linecap="square" stroke-linejoin="round" stroke-miterlimit="10" x1="362.5" y1="39" x2="362.5" y2="44.43"/>
			
				<line fill="none" stroke="#262626" stroke-width="1.8333" stroke-linecap="square" stroke-linejoin="round" stroke-miterlimit="10" x1="416.8" y1="39" x2="416.8" y2="44.43"/>
			
				<line fill="none" stroke="#262626" stroke-width="1.8333" stroke-linecap="square" stroke-linejoin="round" stroke-miterlimit="10" x1="498.25" y1="39" x2="498.25" y2="44.43"/>
			
				<line fill="none" stroke="#262626" stroke-width="1.8333" stroke-linecap="square" stroke-linejoin="round" stroke-miterlimit="10" x1="634" y1="39" x2="634" y2="44.43"/>
		</g>
		<g transform="translate(91,474.6667)">
			<text transform="matrix(1 0 0 1 -4.9998 18.0001)" fill="#262626" font-family="'ArialMT'" font-size="16.6667">0</text>
		</g>
		<g transform="translate(226.75,474.6667)">
			<text transform="matrix(1 0 0 1 -16.9998 18.0001)" fill="#262626" font-family="'ArialMT'" font-size="16.6667">0.25</text>
		</g>
		<g transform="translate(275.62,474.6667)">
			<text transform="matrix(1 0 0 1 -16.9996 18.0001)" fill="#262626" font-family="'ArialMT'" font-size="16.6667">0.34</text>
		</g>
		<g transform="translate(362.5,474.6667)">
			<text transform="matrix(1 0 0 1 -12.0002 18.0001)" fill="#262626" font-family="'ArialMT'" font-size="16.6667">0.5</text>
		</g>
		<g transform="translate(416.8,474.6667)">
			<text transform="matrix(1 0 0 1 -11.9995 18.0001)" fill="#262626" font-family="'ArialMT'" font-size="16.6667">0.6</text>
		</g>
		<g transform="translate(498.25,474.6667)">
			<text transform="matrix(1 0 0 1 -17.0002 18.0001)" fill="#262626" font-family="'ArialMT'" font-size="16.6667">0.75</text>
		</g>
		<g transform="translate(634,474.6667)">
			<text transform="matrix(1 0 0 1 -5.0002 18.0001)" fill="#262626" font-family="'ArialMT'" font-size="16.6667">1</text>
		</g>
		<g>
			
				<line fill="none" stroke="#262626" stroke-width="1.8333" stroke-linecap="square" stroke-linejoin="round" stroke-miterlimit="10" x1="91" y1="468" x2="91" y2="39"/>
			
				<line fill="none" stroke="#262626" stroke-width="1.8333" stroke-linecap="square" stroke-linejoin="round" stroke-miterlimit="10" x1="634" y1="468" x2="634" y2="39"/>
			<path fill="none" stroke="#000000" stroke-width="1.8333" stroke-linejoin="round" stroke-miterlimit="10" d="M91,468h135.75
				H362.5h135.75H634"/>
		</g>
		<g transform="translate(275.62,468)">
			<circle fill="#D95319" cx="0" cy="0" r="4.889"/>
		</g>
		<g transform="translate(275.62,468)">
			<path fill="#D95319" d="M0-4.472C2.47-4.472,4.473-2.47,4.473,0l0,0C4.473,2.47,2.47,4.472,0,4.472S-4.472,2.47-4.472,0
				C-4.472-2.47-2.47-4.472,0-4.472z M0-5.305C-2.93-5.305-5.306-2.93-5.306,0C-5.306,2.93-2.93,5.305,0,5.305
				C2.931,5.305,5.306,2.93,5.306,0l0,0C5.306-2.93,2.931-5.305,0-5.305z"/>
		</g>
		<g transform="translate(416.8,468)">
			<circle fill="#EDB120" cx="0" cy="0" r="4.889"/>
		</g>
		<g transform="translate(416.8,468)">
			<path fill="#EDB120" d="M0-4.472C2.47-4.472,4.472-2.47,4.472,0l0,0C4.472,2.47,2.47,4.472,0,4.472
				C-2.47,4.472-4.472,2.47-4.472,0C-4.472-2.47-2.47-4.472,0-4.472z M0-5.305C-2.93-5.305-5.305-2.93-5.305,0
				C-5.305,2.93-2.93,5.305,0,5.305C2.93,5.305,5.306,2.93,5.306,0l0,0C5.306-2.93,2.93-5.305,0-5.305z"/>
		</g>
	</g>
	<g>
		<g>
			<g>
				<g>
					<polygon fill="none" points="269.405,473.318 269.405,469.369 269.405,468.334 269.405,467.695 269.405,466.595 
						269.405,462.681 259.624,462.681 259.624,466.595 259.624,467.695 259.624,468.334 259.624,469.369 259.624,473.318 					"/>
					<rect x="259.285" y="467.24" fill="#C30D23" width="11.029" height="0.39"/>
					<polygon fill="#C30D23" points="259.285,468.334 259.285,468.659 270.314,468.659 270.314,468.334 270.314,468.269 
						259.285,468.269 					"/>
					<polygon fill="#E60012" points="259.285,467.695 259.285,468.269 270.314,468.269 270.314,467.695 270.314,467.63 
						259.285,467.63 					"/>
					<rect x="268.724" y="466.531" fill="#050000" width="1.59" height="2.838"/>
					<rect x="268.104" y="466.547" fill="#C30D23" width="0.784" height="2.839"/>
					<polygon fill="#050000" points="259.285,466.595 259.285,467.242 270.314,467.24 270.314,466.595 270.314,466.531 
						259.285,466.532 					"/>
					<rect x="259.285" y="468.659" fill="#050000" width="11.029" height="0.71"/>
				</g>
				<g>
					<polygon fill="none" points="258.661,473.318 258.661,469.369 258.661,468.334 258.661,467.695 258.661,466.595 
						258.661,462.681 248.879,462.681 248.879,466.595 248.879,467.695 248.879,468.334 248.879,469.369 248.879,473.318 					"/>
					<g>
						<polygon fill="#050000" points="248.255,466.595 248.255,467.242 259.285,467.24 259.285,466.595 259.285,466.531 
							248.255,466.532 						"/>
						<rect x="248.255" y="468.659" fill="#050000" width="11.03" height="0.71"/>
						<rect x="248.255" y="467.24" fill="#C30D23" width="11.03" height="0.39"/>
						<polygon fill="#C30D23" points="248.255,468.334 248.255,468.659 259.285,468.659 259.285,468.334 259.285,468.269 
							248.255,468.269 						"/>
						<polygon fill="#E60012" points="248.255,467.695 248.255,468.269 259.285,468.269 259.285,467.695 259.285,467.63 
							248.255,467.63 						"/>
					</g>
				</g>
				<g>
					<polygon fill="none" points="247.632,473.318 247.632,469.369 247.632,468.334 247.632,467.695 247.632,466.595 
						247.632,462.681 237.85,462.681 237.85,466.595 237.85,467.695 237.85,468.334 237.85,469.369 237.85,473.318 					"/>
					<g>
						<polygon fill="#050000" points="237.225,466.595 237.225,467.242 248.255,467.24 248.255,466.595 248.255,466.531 
							237.225,466.532 						"/>
						<rect x="237.225" y="468.659" fill="#050000" width="11.03" height="0.71"/>
						<rect x="237.225" y="467.24" fill="#C30D23" width="11.03" height="0.39"/>
						<polygon fill="#C30D23" points="237.225,468.334 237.225,468.659 248.255,468.659 248.255,468.334 248.255,468.269 
							237.225,468.269 						"/>
						<polygon fill="#E60012" points="237.225,467.695 237.225,468.269 248.255,468.269 248.255,467.695 248.255,467.63 
							237.225,467.63 						"/>
					</g>
				</g>
				<g>
					<polygon fill="none" points="236.532,466.595 236.532,462.681 226.75,462.681 226.75,473.318 236.532,473.318 236.532,469.427 
											"/>
					<g>
						<polygon fill="#050000" points="231.362,466.66 231.362,467.304 237.225,467.304 237.225,466.66 237.225,466.595 
							231.362,466.595 						"/>
						<rect x="231.362" y="468.722" fill="#050000" width="5.863" height="0.711"/>
						<rect x="231.362" y="467.304" fill="#C30D23" width="5.863" height="0.391"/>
						<polygon fill="#C30D23" points="231.362,468.398 231.362,468.722 237.225,468.722 237.225,468.398 237.225,468.333 
							231.362,468.333 						"/>
						<polygon fill="#E60012" points="231.362,467.76 231.362,468.333 237.225,468.333 237.225,467.76 237.225,467.695 
							231.362,467.695 						"/>
					</g>
					<rect x="226.75" y="462.681" fill="none" width="9.782" height="10.637"/>
					<line fill="none" x1="226.855" y1="468" x2="234.294" y2="463.33"/>
					<polygon fill="#050000" points="233.99,468.721 233.99,471.541 228.353,468.005 233.99,464.466 233.99,467.304 
						234.294,467.304 234.294,466.595 234.294,463.33 226.855,468 234.294,472.669 234.294,469.429 234.294,468.721 					"/>
					<path fill="#C30D23" d="M233.99,464.466l-5.636,3.539l5.636,3.536v-2.819v-0.388h-0.124c-0.122,0.372-0.445,0.641-0.83,0.641
						c-0.487,0-0.883-0.43-0.883-0.961c0-0.529,0.396-0.959,0.883-0.959c0.385,0,0.708,0.268,0.83,0.641h0.124v-0.391V464.466z"/>
					<path fill="#E60012" d="M233.036,467.054c-0.487,0-0.883,0.43-0.883,0.959c0,0.531,0.396,0.961,0.883,0.961
						c0.385,0,0.708-0.269,0.83-0.641c0.033-0.1,0.054-0.207,0.054-0.32c0-0.111-0.021-0.217-0.054-0.318
						C233.744,467.322,233.421,467.054,233.036,467.054z"/>
				</g>
			</g>
		</g>
	</g>
	<g>
		<g>
			<g>
				<g>
					<polygon fill="none" points="410.472,473.318 410.472,469.369 410.472,468.334 410.472,467.695 410.472,466.595 
						410.472,462.681 399.471,462.681 399.471,466.595 399.471,467.695 399.471,468.334 399.471,469.369 399.471,473.318 					"/>
					<rect x="399.091" y="467.24" fill="#FFE400" width="12.404" height="0.39"/>
					<polygon fill="#FFE400" points="399.091,468.334 399.091,468.659 411.495,468.659 411.495,468.334 411.495,468.269 
						399.091,468.269 					"/>
					<polygon fill="#F4F5F5" points="399.091,467.695 399.091,468.269 411.495,468.269 411.495,467.695 411.495,467.63 
						399.091,467.63 					"/>
					<rect x="409.707" y="466.531" fill="#050000" width="1.788" height="2.838"/>
					<rect x="409.009" y="466.547" fill="#FFE400" width="0.882" height="2.839"/>
					<polygon fill="#050000" points="399.091,466.595 399.091,467.242 411.495,467.24 411.495,466.595 411.495,466.531 
						399.091,466.532 					"/>
					<rect x="399.091" y="468.659" fill="#050000" width="12.404" height="0.71"/>
				</g>
				<g>
					<polygon fill="none" points="398.388,473.318 398.388,469.369 398.388,468.334 398.388,467.695 398.388,466.595 
						398.388,462.681 387.388,462.681 387.388,466.595 387.388,467.695 387.388,468.334 387.388,469.369 387.388,473.318 					"/>
					<g>
						<polygon fill="#050000" points="386.686,466.595 386.686,467.242 399.091,467.24 399.091,466.595 399.091,466.531 
							386.686,466.532 						"/>
						<rect x="386.686" y="468.659" fill="#050000" width="12.404" height="0.71"/>
						<rect x="386.686" y="467.24" fill="#FFE400" width="12.404" height="0.39"/>
						<polygon fill="#FFE400" points="386.686,468.334 386.686,468.659 399.091,468.659 399.091,468.334 399.091,468.269 
							386.686,468.269 						"/>
						<polygon fill="#F4F5F5" points="386.686,467.695 386.686,468.269 399.091,468.269 399.091,467.695 399.091,467.63 
							386.686,467.63 						"/>
					</g>
				</g>
				<g>
					<polygon fill="none" points="385.984,473.318 385.984,469.369 385.984,468.334 385.984,467.695 385.984,466.595 
						385.984,462.681 374.983,462.681 374.983,466.595 374.983,467.695 374.983,468.334 374.983,469.369 374.983,473.318 					"/>
					<g>
						<polygon fill="#050000" points="374.281,466.595 374.281,467.242 386.686,467.24 386.686,466.595 386.686,466.531 
							374.281,466.532 						"/>
						<rect x="374.281" y="468.659" fill="#050000" width="12.405" height="0.71"/>
						<rect x="374.281" y="467.24" fill="#FFE400" width="12.405" height="0.39"/>
						<polygon fill="#FFE400" points="374.281,468.334 374.281,468.659 386.686,468.659 386.686,468.334 386.686,468.269 
							374.281,468.269 						"/>
						<polygon fill="#F4F5F5" points="374.281,467.695 374.281,468.269 386.686,468.269 386.686,467.695 386.686,467.63 
							374.281,467.63 						"/>
					</g>
				</g>
				<g>
					<polygon fill="none" points="373.502,466.595 373.502,462.681 362.5,462.681 362.5,473.318 373.502,473.318 373.502,469.427 
											"/>
					<g>
						<polygon fill="#050000" points="367.687,466.66 367.687,467.304 374.281,467.304 374.281,466.66 374.281,466.595 
							367.687,466.595 						"/>
						<rect x="367.687" y="468.722" fill="#050000" width="6.594" height="0.711"/>
						<rect x="367.687" y="467.304" fill="#FFE400" width="6.594" height="0.391"/>
						<polygon fill="#FFE400" points="367.687,468.398 367.687,468.722 374.281,468.722 374.281,468.398 374.281,468.333 
							367.687,468.333 						"/>
						<polygon fill="#F4F5F5" points="367.687,467.76 367.687,468.333 374.281,468.333 374.281,467.76 374.281,467.695 
							367.687,467.695 						"/>
					</g>
					<rect x="362.5" y="462.681" fill="none" width="11.002" height="10.637"/>
					<line fill="none" x1="362.618" y1="468" x2="370.984" y2="463.33"/>
					<polygon fill="#050000" points="370.642,468.721 370.642,471.541 364.303,468.005 370.642,464.466 370.642,467.304 
						370.984,467.304 370.984,466.595 370.984,463.33 362.618,468 370.984,472.669 370.984,469.429 370.984,468.721 					"/>
					<path fill="#FFE400" d="M370.642,464.466l-6.339,3.539l6.339,3.536v-2.819v-0.388h-0.14c-0.137,0.372-0.5,0.641-0.933,0.641
						c-0.548,0-0.993-0.43-0.993-0.961c0-0.529,0.445-0.959,0.993-0.959c0.433,0,0.796,0.268,0.933,0.641h0.14v-0.391V464.466z"/>
					<path fill="#F4F5F5" d="M369.57,467.054c-0.548,0-0.993,0.43-0.993,0.959c0,0.531,0.445,0.961,0.993,0.961
						c0.433,0,0.796-0.269,0.933-0.641c0.037-0.1,0.061-0.207,0.061-0.32c0-0.111-0.023-0.217-0.061-0.318
						C370.366,467.322,370.003,467.054,369.57,467.054z"/>
				</g>
			</g>
		</g>
	</g>
</g>
</svg>
