<?xml version="1.0" encoding="utf-8"?>
<!-- Generator: Adobe Illustrator 16.0.0, SVG Export Plug-In . SVG Version: 6.00 Build 0)  -->
<!DOCTYPE svg PUBLIC "-//W3C//DTD SVG 1.1//EN" "http://www.w3.org/Graphics/SVG/1.1/DTD/svg11.dtd">
<svg version="1.1" id="图层_1" xmlns="http://www.w3.org/2000/svg" xmlns:xlink="http://www.w3.org/1999/xlink" x="0px" y="0px"
	 width="595.28px" height="841.89px" viewBox="0 0 595.28 841.89" enable-background="new 0 0 595.28 841.89" xml:space="preserve">
<g>
	<path fill="none" stroke="#3791BF" stroke-width="2" stroke-linecap="round" stroke-linejoin="round" d="M83.681,579.203
		c0.023,0.013,0.048,0.021,0.071,0.033c0.013,0.006,0.024,0.014,0.036,0.02l80.038,38.334c0.004,0.002,0.009,0.004,0.013,0.006
		s0.008,0.004,0.012,0.006c7.367,3.511,15.4,5.3,23.441,5.3c4.256,0,8.516-0.501,12.678-1.515
		c12.03-2.931,22.8-10.024,30.326-19.977c0.001-0.001,0.002-0.002,0.002-0.002l0.002-0.003c0.001-0.001,0.002-0.003,0.004-0.004
		c0-0.001,0-0.001,0-0.001l68.237-90.141c0.002-0.002,0.003-0.005,0.005-0.008c0.098-0.128,0.186-0.205,0.248-0.25l82.43,54.145
		v96.902c0,0.048,0.006,0.095,0.008,0.143c0,0.051-0.006,0.098-0.004,0.146c0.229,10.533,4.507,20.385,12.045,27.738
		c7.525,7.342,17.467,11.384,27.994,11.384c21.74,0,39.143-17.185,39.62-39.122c0.001-0.049-0.005-0.098-0.004-0.146
		c0.001-0.048,0.007-0.095,0.007-0.143V551.68c-0.001-18.178-9.146-35.064-24.462-45.187c-0.004-0.003-0.007-0.005-0.011-0.008
		l-0.033-0.022c-0.002-0.001-0.003-0.002-0.005-0.003l-0.001-0.001l-61.464-40.835c-0.005-0.004-0.011-0.007-0.016-0.011
		c-0.008-0.004-0.014-0.01-0.021-0.015c-0.229-0.15-0.363-0.306-0.434-0.408l17.56-57.378l3.363,10.258
		c0,0.002,0.001,0.005,0.001,0.007c4.126,12.575,14.17,22.394,26.87,26.263c0.008,0.002,0.014,0.003,0.021,0.006
		c0.004,0.001,0.009,0.003,0.013,0.004l71.191,21.484c0.021,0.006,0.042,0.01,0.063,0.016c3.212,1.006,6.484,1.502,9.73,1.502
		c8.184,0,16.194-3.127,22.616-9.059c8.939-8.258,12.744-20.74,9.928-32.58c-2.771-11.644-11.21-20.578-22.61-24.003
		c-0.049-0.016-0.095-0.037-0.144-0.052l-53.297-16.581l-29.418-90.672c-0.001-0.006-0.005-0.011-0.006-0.017
		c-0.003-0.008-0.004-0.016-0.007-0.024c-4.445-13.55-15.469-23.993-29.508-27.979c-0.033-0.009-0.063-0.023-0.096-0.033
		l-39.598-11.374c-0.017-0.005-0.034-0.007-0.051-0.012c-0.016-0.005-0.03-0.011-0.046-0.016
		c-30.202-8.431-62.411-9.792-93.144-3.938c-30.781,5.862-60.225,18.991-85.145,37.966c-0.381,0.291-0.74,0.599-1.081,0.92
		l-36.144,27.519c-0.035,0.027-0.066,0.058-0.101,0.084c-10.356,7.556-15.653,19.651-14.173,32.5
		c1.504,13.044,10.001,24.203,22.176,29.121c4.338,1.752,8.887,2.609,13.401,2.609c7.93,0,15.75-2.651,22.137-7.738
		c0.004-0.003,0.009-0.006,0.013-0.009l50.129-37.913c0.006-0.004,0.01-0.008,0.016-0.012c0.006-0.005,0.013-0.009,0.02-0.014
		c9.245-7.041,21.227-9.82,32.871-7.624c0.026,0.005,0.052,0.006,0.078,0.011c0.025,0.004,0.05,0.013,0.075,0.017l6.112,1.079
		l-37.151,120.939c-0.001,0.005-0.002,0.01-0.003,0.016c-0.002,0.003-0.004,0.007-0.006,0.011c-1.497,4.911-3.56,9.065-6.305,12.7
		l-55.576,73.313l-61.21-29.258c-0.024-0.012-0.051-0.02-0.075-0.031c-0.025-0.012-0.048-0.025-0.072-0.037
		c-9.594-4.442-20.313-5.023-30.182-1.635c-10.066,3.457-18.135,10.656-22.717,20.274C55.548,545.583,63.943,569.531,83.681,579.203
		z"/>
	<path fill="none" stroke="#3791BF" stroke-width="2" stroke-linecap="round" stroke-linejoin="round" d="M95.374,555.324
		L175.29,593.6c11.938,5.688,25.839,2.303,33.803-8.232c0.001-0.002,0.003-0.003,0.004-0.005c0-0.001,0.001-0.001,0.002-0.002
		l68.236-90.14l0.002-0.002c0-0.002,0.002-0.003,0.002-0.004l0.003-0.004c0.001,0,0.001,0,0.002-0.002
		c8.682-11.475,24.146-14.249,35.993-6.465c0.006,0.004,0.012,0.006,0.017,0.01l85.936,56.448c0.002,0.002,0.005,0.004,0.008,0.006
		s0.007,0.003,0.011,0.006c5.246,3.458,8.505,9.486,8.505,15.733v100.854c0.183,7.332,6.083,13.069,13.454,13.069
		c7.256,0,12.851-5.613,13.034-13.066V551.681c-0.001-9.231-4.694-17.839-12.558-23.022c-0.006-0.004-0.012-0.01-0.018-0.014
		s-0.014-0.008-0.021-0.013l-61.459-40.833c-0.003-0.002-0.004-0.002-0.006-0.004c-0.006-0.003-0.01-0.007-0.016-0.01l-0.022-0.016
		c-0.003-0.002-0.006-0.005-0.01-0.008c-10.164-6.73-14.685-18.82-11.249-30.103c0-0.003,0.002-0.005,0.003-0.007
		c0.001-0.004,0.001-0.008,0.002-0.012l29.909-97.729c0.041-0.135,0.098-0.26,0.143-0.392c0.082-0.243,0.164-0.485,0.261-0.722
		c0.081-0.202,0.174-0.396,0.265-0.591c0.089-0.191,0.177-0.383,0.274-0.57c0.111-0.213,0.232-0.418,0.354-0.624
		c0.096-0.163,0.192-0.325,0.295-0.483c0.133-0.203,0.273-0.397,0.415-0.591c0.114-0.156,0.229-0.311,0.351-0.463
		c0.142-0.175,0.288-0.343,0.438-0.51c0.143-0.16,0.286-0.319,0.438-0.473c0.139-0.143,0.283-0.278,0.429-0.414
		c0.176-0.163,0.353-0.324,0.537-0.478c0.138-0.114,0.278-0.222,0.419-0.331c0.203-0.155,0.406-0.308,0.618-0.452
		c0.146-0.099,0.294-0.19,0.442-0.283c0.213-0.133,0.428-0.265,0.65-0.386c0.174-0.095,0.353-0.181,0.529-0.268
		c0.205-0.1,0.406-0.201,0.617-0.291c0.227-0.097,0.457-0.18,0.688-0.265c0.138-0.05,0.269-0.111,0.409-0.157
		c0.039-0.013,0.079-0.02,0.119-0.033c0.264-0.084,0.533-0.151,0.803-0.219c0.158-0.04,0.315-0.087,0.474-0.121
		c0.262-0.055,0.526-0.092,0.792-0.132c0.171-0.026,0.342-0.06,0.512-0.078c0.23-0.025,0.465-0.032,0.697-0.046
		c0.205-0.011,0.412-0.031,0.616-0.033c0.188-0.001,0.376,0.013,0.564,0.02c0.251,0.008,0.503,0.012,0.751,0.034
		c0.154,0.014,0.311,0.042,0.465,0.062c0.282,0.036,0.564,0.07,0.843,0.124c0.146,0.028,0.289,0.068,0.435,0.101
		c0.285,0.065,0.57,0.131,0.85,0.214c0.037,0.011,0.074,0.017,0.11,0.027c0.132,0.041,0.253,0.095,0.382,0.138
		c0.247,0.084,0.493,0.168,0.734,0.267c0.199,0.081,0.392,0.172,0.584,0.261c0.193,0.09,0.387,0.178,0.576,0.276
		c0.213,0.112,0.418,0.232,0.623,0.354c0.162,0.097,0.324,0.192,0.482,0.295c0.203,0.133,0.4,0.274,0.595,0.417
		c0.154,0.113,0.308,0.226,0.458,0.346c0.177,0.143,0.348,0.292,0.518,0.444c0.157,0.14,0.313,0.28,0.464,0.428
		c0.146,0.144,0.285,0.292,0.423,0.441c0.16,0.171,0.316,0.344,0.468,0.524c0.118,0.143,0.23,0.289,0.343,0.436
		c0.15,0.196,0.299,0.394,0.439,0.601c0.104,0.151,0.199,0.308,0.296,0.463c0.128,0.207,0.256,0.414,0.374,0.628
		c0.1,0.183,0.189,0.37,0.281,0.557c0.095,0.195,0.191,0.389,0.278,0.59c0.103,0.237,0.189,0.479,0.277,0.722
		c0.046,0.129,0.104,0.252,0.147,0.383l16.429,50.129l0.001,0c1.408,4.293,4.993,7.786,9.355,9.116c0,0,0,0,0.001,0l71.156,21.473
		c0.042,0.014,0.081,0.031,0.123,0.045c0.042,0.013,0.086,0.021,0.129,0.034c2.259,0.729,4.425,0.16,6.437-1.696
		c1.891-1.748,2.697-4.39,2.1-6.895c-0.6-2.524-2.027-4.029-4.49-4.734c-0.041-0.012-0.079-0.028-0.12-0.041
		c-0.057-0.017-0.115-0.028-0.173-0.047l-56.869-17.692c-0.021-0.007-0.043-0.017-0.064-0.024
		c-5.939-1.856-10.574-6.294-12.411-11.901c-0.002-0.007-0.003-0.014-0.006-0.021c-0.002-0.005-0.003-0.01-0.005-0.015
		l-30.736-94.736c-0.001-0.002-0.002-0.004-0.003-0.006c-1.691-5.157-6.022-9.164-11.583-10.715
		c-0.013-0.004-0.024-0.009-0.036-0.012c-0.021-0.006-0.04-0.01-0.061-0.016l-39.523-11.352
		c-52.915-14.763-110.483-3.917-154.218,28.992c-0.303,0.278-0.616,0.548-0.949,0.802l-37.07,28.224
		c-0.078,0.059-0.159,0.108-0.238,0.166c-0.055,0.041-0.105,0.087-0.162,0.128c-2.721,1.916-3.955,4.714-3.564,8.091
		c0.387,3.365,2.579,6.243,5.721,7.511c3.14,1.268,6.553,0.762,9.128-1.355c0.07-0.058,0.146-0.104,0.216-0.16
		c0.072-0.057,0.137-0.12,0.209-0.175l50.13-37.914c0.004-0.002,0.007-0.004,0.011-0.007c15.174-11.534,34.729-16.117,53.685-12.594
		c0.008,0.001,0.016,0.001,0.023,0.002l14.323,2.528c0.024,0.005,0.049,0.013,0.074,0.017c0.025,0.005,0.051,0.006,0.076,0.011
		c5.69,1.072,10.336,4.164,13.084,8.706c2.802,4.628,3.459,10.393,1.805,15.818c-0.001,0.003-0.002,0.006-0.004,0.009
		c-0.001,0.006-0.002,0.012-0.004,0.018l-39.598,128.903c-0.004,0.01-0.008,0.019-0.01,0.027c-2.425,7.931-5.865,14.78-10.52,20.937
		c-0.001,0.001-0.002,0.002-0.003,0.004c-0.003,0.003-0.005,0.007-0.007,0.01l-59.396,78.353c-0.004,0.005-0.009,0.01-0.013,0.015
		c-3.649,4.809-9.293,7.445-15.042,7.445c-2.709,0-5.439-0.586-7.999-1.805c-0.002,0-0.003-0.002-0.005-0.003
		c-0.004-0.001-0.007-0.003-0.01-0.004l-66.848-31.952c-6.836-3.154-14.613-0.543-17.708,5.955
		C85.79,543.928,88.663,552.031,95.374,555.324z"/>
	<path fill="none" stroke="#3791BF" stroke-width="2" stroke-linecap="round" stroke-linejoin="round" d="M457.394,195.062
		c0-30.442-24.766-55.209-55.208-55.209s-55.209,24.767-55.209,55.209c0,30.442,24.767,55.208,55.209,55.208
		S457.394,225.504,457.394,195.062z"/>
	<path fill="none" stroke="#3791BF" stroke-width="2" stroke-linecap="round" stroke-linejoin="round" d="M430.806,195.062
		c0-15.781-12.839-28.62-28.62-28.62s-28.62,12.839-28.62,28.62c0,15.782,12.839,28.62,28.62,28.62S430.806,210.844,430.806,195.062
		z"/>
</g>
</svg>
