<?xml version="1.0" encoding="utf-8"?>
<!-- Generator: Adobe Illustrator 16.0.0, SVG Export Plug-In . SVG Version: 6.00 Build 0)  -->
<!DOCTYPE svg PUBLIC "-//W3C//DTD SVG 1.1//EN" "http://www.w3.org/Graphics/SVG/1.1/DTD/svg11.dtd">
<svg version="1.1" id="图层_1" xmlns="http://www.w3.org/2000/svg" xmlns:xlink="http://www.w3.org/1999/xlink" x="0px" y="0px"
	 width="841.89px" height="595.28px" viewBox="0 0 841.89 595.28" enable-background="new 0 0 841.89 595.28" xml:space="preserve">
<path fill="none" stroke="#040000" stroke-linecap="round" stroke-linejoin="round" d="M150.05,294.18
	c3.461,6.832,14.172,11.055,18.766,17.781c6.625,9.692,12.445,23.985,20.738,37.521c8.047,13.129,17.777,24.483,21.727,37.526
	c5.051,16.688,6.012,31.055,14.816,44.445c16.082,24.457,55.262,27.895,87.887,34.57c27.094,5.535,54.504,17.266,77.027,25.672
	c39.309,14.668,68.645,32.582,110.61,43.457c12.301,3.18,32.293,8.703,43.449,7.902c21.116-1.513,30.687-23.234,46.414-32.586
	c-2.953-14.517,0.742-35.509-5.926-48.396c-1.762-2.996-3.875,3.652-5.93,0c-1.352-6.879-1.5-14.957-5.926-18.77
	c-3.434,11.718-3.922,26.37-13.828,31.604c-2.941-8.125,5.555-29.746-3.949-37.52c-3.156,14.944-8.771,27.437-19.75,34.562
	c5.441-11.004,11.473-35.711,2.961-48.395c-3.902,16.844-11.793,29.691-23.699,38.516c2.621-7.547,8.223-26.484,0-32.594
	c-1.825,9.043-3.313,18.422-11.848,20.742c3.191-8.215,4.801-23.945-1.977-29.625c-2.146,14.969-9.329,24.902-18.767,32.586
	c-7.156-3.863,3.109-14.164,3.949-24.691c0.566-7.108,0.504-15.258-4.938-19.75c-1.973,14.492-7.063,25.852-18.762,30.613
	c3.676-11.254,1.313-24.824-2.961-33.57c-3.203-1.219-0.762,3.199-3.961,1.973c-0.172-2.789,0.852-6.766-1.977-6.906
	c-3.648,8.267-9.703,19.16-17.773,19.75c0.91-6.012,6.633-12.43,2.961-19.75c-2.465,5.103-4.207,10.931-10.859,11.845
	c-4.281-4.274,3.012-9.649,0.984-17.771c-4.637,1.289-3.148,8.703-8.887,8.887c-22.563-21.547-39.973-48.246-59.254-73.078
	c-18.316-5.387-29.984-17.426-42.465-28.637c8.797-6.949,18.719-14.738,28.637-23.703c8.884-8.031,19.341-19.383,29.63-22.719
	c24.022-7.774,43.09,12.706,63.194,17.78c-1.973,5.598-6.625,8.52-8.883,13.828c10.181,0.36,13.352-10.613,20.742-9.867
	c8.105,9.184-6.367,18.543-8.895,26.656c16.152,0.229,19.977-23.871,34.57-15.797c1.652,15.151-2.355,24.645-6.91,33.578
	c13.809-3.64,17.574-17.316,24.68-27.652c6.859,4.403,1.234,17.938-0.984,22.715c9.556-1.973,10.403-12.641,15.806-18.762
	c4.906,13.312-1.238,26.93-5.926,36.535c13.895-4.543,18.379-18.48,25.672-29.625c1.945,18.386-5.207,27.703-8.887,40.48
	c12.598-6.363,21.336-16.773,26.66-29.625c1.809-4.352,1.262-15.059,9.879-13.82c-0.492,3.586-1.988,10.813-4.934,14.805
	c8.262,1.215,9.645-12.637,16.789-15.797c9.816,14.578,6.551,39.031,0.984,55.301c13.398-7.319,20.664-20.804,24.684-37.526
	c7.75-4.095,9.906-13.794,15.805-19.747c4.668,20.031,6.988,43.242-0.992,61.23c21.235-5.772,21.61-40.917,38.517-54.313
	c0.133,14.941-5.82,23.806-7.902,36.54l0.003,0.005c8.629-2.32,15.828-14.414,18.801-25.695
	c10.941-6.492,15.668-19.22,15.797-36.535c16.539-20.938,1.078-63.801-13.828-78.021c-26.2-15.28-45.153-37.797-79.012-45.426
	c-46.716-3.324-82.997-17.065-122.45-27.652c-18.227-18.05-48.563-34.534-79.996-47.397c-6.504-2.66-15.375-3.938-22.715-7.902
	c-7.142-3.852-13.293-10.023-19.75-11.855c-5.602-1.586-13.672-0.637-20.738-1.977c-7.851-1.492-14.926-5.238-20.738-5.926
	c-27.883-3.316-44.973,4.691-65.184,14.813c-15.767,7.882-35.551,15.069-48.392,17.772c-2.73,0.57-4.344-0.617-5.93,0
	c-13.016,5.082-5.902,15-6.91,26.66c-0.246,2.828-3.328,6.105-3.949,9.879c-3.055,18.496,0.363,42.828,10.859,49.375
	c20.754,0.016,35.961-5.52,39.504-22.719c6.613,0.41,9.77-8.117,16.793-9.871c15.422-3.855,30.429,1.824,40.488-7.902
	c2.387-2.301,3.383-5.594,5.93-9.871c4.367-0.242,7.195-2.027,11.848-1.977c5.661,15.727,14.673,49.551,11.849,76.043
	c-1.164,10.973-5.239,28.891-11.849,33.578c-9.129,6.469-23.265,3.035-37.526,1.977c-24.021-24.973,30.71-37.036,27.651-58.271
	c-0.854-5.901-9.608-9.968-14.815-10.862c-26.267-4.492-55.739,6.41-65.181,20.742c-6.473-6.47-15.578,0.34-16.789,6.91
	c-0.816,4.433,2.336,9.948,1.977,14.815c-0.996,13.469-11.238,33.349-4.934,46.414C161.608,256.364,154.464,273.903,150.05,294.18z"
	/>
</svg>
