<?xml version="1.0" encoding="utf-8"?>
<!-- Generator: Adobe Illustrator 16.0.0, SVG Export Plug-In . SVG Version: 6.00 Build 0)  -->
<!DOCTYPE svg PUBLIC "-//W3C//DTD SVG 1.1//EN" "http://www.w3.org/Graphics/SVG/1.1/DTD/svg11.dtd">
<svg version="1.1" id="图层_1" xmlns="http://www.w3.org/2000/svg" xmlns:xlink="http://www.w3.org/1999/xlink" x="0px" y="0px"
	 width="595.28px" height="841.89px" viewBox="0 0 595.28 841.89" enable-background="new 0 0 595.28 841.89" xml:space="preserve">
<path fill="none" stroke="#666767" stroke-linecap="round" stroke-linejoin="round" d="M363.313,627.452
	c10.046,19.121,12.329,53.757,12.164,58.881c-0.185,6.767,7.796-2.272,21.093,11.297c13.311,13.5,23.653,11.772,24.212,6.078
	c0.489-5.706-13.676-5.696-9.994-17.094c0.004,0.008,0.018,0.034,0.018,0.034c3.67-11.526,21.625,17.757,22.402,24.516
	c0.687,7.249-23.486,11.401-7.844,14.819c16.136,3.51,33.206-25.364,15.984-36.707c-17.13-11.834-44.256-51.98-86.649-133.12
	c-42.885-81.232,53.603-91.266,53.603-91.266C393.739,381.805,494.8,347.187,494.8,347.187
	c-15.271-106.619,90.786-148.956,90.786-148.956s-31.265-12.429-47.468-21.038c-15.357-8.858-72.126-9.192-74.035-9.201
	l32.328-26.924c-81.727-29.253-190.486,26.435-240.536,53.672c-50.049,27.237-76.783,144.564-81.073,143.502
	c-4.276-1.063-15.157,7.735-17.023,10.8c-1.906,3.077,15.117-1.935,18.454-2.888c0.188-0.029,0.379-0.074,0.569-0.116
	c2.675,0.502,0.759,8.278,0.759,8.278c-8.794-4.688-25.122,6.52-20.788,7.834c1.475,0.274,3.133-0.435,4.699-0.652
	c3.808-1.326,8.6-2.47,16.57,6.643c11.756,13.379-19.938,107.192-30.881,103.122c-11.035-3.578-46.002,14.846-46.768,16.229
	c-0.767,1.383-7.388-9.514-19.967-18.467c-10.795-7.604-28.44-35.813-31.951-41.553c1.636,4.883,0.275,20.399-1.052,16.592
	c0,0,1.843,20.183,4.668,40.548c1.762,6.941,2.813,12.225,1.739,12.533c-3.991,2.31-12.087,13.014-15.643,18.457
	c-3.465,4.951-18.695,10.258-23.292,18.56c-5.18,8.702,13.288,10.611,18.377,24.275c5.581,13.756,21.247,11.583,49.96,2.17
	c28.712-9.412,48.301,2.879,74.18,30.585c25.97,27.214,118.091,35.19,136.146,28.374c18.147-7.308,37.038-10.407,57.724-4.017
	C356.108,616.955,360.385,621.312,363.313,627.452"/>
</svg>
