<?xml version="1.0" encoding="utf-8"?>
<!-- Generator: Adobe Illustrator 16.0.0, SVG Export Plug-In . SVG Version: 6.00 Build 0)  -->
<!DOCTYPE svg PUBLIC "-//W3C//DTD SVG 1.1//EN" "http://www.w3.org/Graphics/SVG/1.1/DTD/svg11.dtd">
<svg version="1.1" id="图层_1" xmlns="http://www.w3.org/2000/svg" xmlns:xlink="http://www.w3.org/1999/xlink" x="0px" y="0px"
	 width="841.89px" height="595.28px" viewBox="0 0 841.89 595.28" enable-background="new 0 0 841.89 595.28" xml:space="preserve">
<path fill="none" stroke="#040000" stroke-linecap="round" stroke-linejoin="round" d="M35.837,110.988
	c2.658,7.307,10.632,15.949,17.939,11.961c11.96-7.313-7.975-30.568,3.987-38.536c39.203,41.855,80.397,81.059,124.249,118.265
	c5.316,3.987,10.632,8.642,13.29,15.281c7.975,17.277-7.974,35.216-14.619,53.155c-9.303,23.923-1.33,36.544,11.293,55.813
	c13.951,19.935-2.658,37.874-19.268,48.506c-9.303,6.646-19.929,12.623-25.246,23.255c-9.971,18.606,0,41.861,10.627,60.462
	c11.299,21.265,23.255,42.523,34.554,63.788c5.316,9.964,11.294,19.935,20.598,25.245c9.303,5.983,23.916,4.653,28.57-5.311
	c-6.645-11.961-16.61-21.265-24.583-31.897c-7.975-10.631-13.29-24.582-9.303-37.205c2.658-8.636,10.632-15.281,17.939-21.265
	c30.562-24.585,64.448-45.181,99.665-62.452c3.987-1.997,7.307-3.325,11.294-3.325c5.984,0,10.632,3.986,15.286,7.306
	c33.221,23.261,77.739,19.274,118.266,19.274c9.971,0,20.597,0.661,27.909,7.968c5.316,4.655,6.646,11.961,8.636,18.606
	c3.987,16.609,7.974,35.878-1.99,50.497c-4.654,6.645-11.961,11.961-15.286,19.269c-4.649,9.303-0.662,21.925,7.974,27.241
	c8.642,5.316,21.265,3.325,27.909-4.648c-9.97-4.654-13.958-17.276-8.642-26.58c2.658-3.987,6.646-7.308,9.971-10.626
	c13.284-13.291,19.93-32.559,17.271-50.497c-1.329-5.316-2.657-11.301-1.329-17.278c2.658-12.623,19.936-17.938,32.559-13.29
	c12.622,4.655,21.265,15.948,29.899,25.913c35.878,42.522,79.068,79.068,126.907,106.972c7.312,4.655,17.276,7.974,23.254,1.996
	c6.646-6.645-0.661-17.938-7.306-24.583c-27.909-27.909-55.151-55.146-82.394-82.388c-7.969-7.975-16.609-16.616-18.601-27.91
	c-3.325-15.948,7.307-31.229,16.609-44.52c14.62-19.93,33.22-42.522,58.472-43.184c7.974-0.668,15.949,1.329,23.916,2.658
	c13.958,1.99,29.239,0.661,43.19-3.326c9.304-2.658,19.937-8.636,21.926-17.939c1.997-6.645-1.328-13.951-3.987-20.596
	c-7.306-16.61-15.281-33.887-28.571-45.842c-4.647-3.987-9.964-8.642-10.631-14.619c-0.661-5.984,4.653-12.623,2.657-18.607
	c-2.657-7.974-13.951-6.645-20.598-1.991c-6.644,3.987-13.283,10.633-21.257,8.636c1.328-12.623-15.949-21.926-25.914-13.952
	c-3.986,3.319-5.983,7.974-8.641,11.96c-12.623,21.926-35.878,34.549-59.795,40.527c-23.922,5.984-49.168,4.654-73.751,3.987
	c-25.252-0.661-50.497-1.991-75.088-8.636c-17.271-4.654-33.219-12.623-49.829-19.268c-54.484-21.925-113.617-31.229-172.087-27.242
	c-10.632,0.662-21.264,1.991-31.229-1.997c-19.936-7.974-39.203-24.583-53.156-40.526c-18.605-20.596-37.874-33.887-57.803-53.823
	C101.615,85.076,91.65,52.518,65.07,43.214c-7.974-2.658-17.271-3.32-23.917,1.997c-5.983,4.648-8.642,12.623-9.97,20.597
	C29.192,81.088,30.521,96.369,35.837,110.988z"/>
</svg>
