<?xml version="1.0" encoding="utf-8"?>
<!-- Generator: Adobe Illustrator 16.0.0, SVG Export Plug-In . SVG Version: 6.00 Build 0)  -->
<!DOCTYPE svg PUBLIC "-//W3C//DTD SVG 1.1//EN" "http://www.w3.org/Graphics/SVG/1.1/DTD/svg11.dtd">
<svg version="1.1" id="图层_1" xmlns="http://www.w3.org/2000/svg" xmlns:xlink="http://www.w3.org/1999/xlink" x="0px" y="0px"
	 width="841.89px" height="595.28px" viewBox="0 0 841.89 595.28" enable-background="new 0 0 841.89 595.28" xml:space="preserve">
<path fill="none" stroke="#040000" stroke-linecap="round" stroke-linejoin="round" d="M192.959,321.073
	c11.199,2.238,17.922,8.961,24.641,15.68c3.359,3.359,6.719,6.719,10.642,9.52c6.16,3.922,16.238,6.719,26.32,9.52
	c7.839,2.238,16.237,4.48,21.84,7.281c9.52,4.48,19.039,13.44,22.961,17.358c-3.359,7.281-12.879,28-16.238,35.841
	c-1.68,4.48-5.602,9.52-5.602,9.52c-0.559,1.121-1.121,2.801,0,4.48c1.121,1.688,2.801,1.125,4.48,1.125h47.039
	c1.68,0,2.801-0.559,3.359-1.68c6.16-8.961,8.961-36.962,10.078-47.039c14-1.68,26.32-3.359,36.397-5.602
	c-1.121,7.281-2.801,21.84-2.238,28.559c1.121,8.398-5.039,19.602-5.039,19.602c-0.559,1.121-0.559,2.801,0,3.922
	s2.238,2.239,3.359,2.239h26.32c1.68,0,2.801-1.121,3.922-2.239c0-0.559,6.16-13.44,6.719-29.68
	c0.559-10.641,2.238-25.762,3.359-34.16c1.121,1.68,2.238,3.922,3.922,6.16l3.359,5.039c10.642,14,16.242,21.281,16.242,29.681
	c0,10.641-0.559,20.719-0.559,20.719c0,1.121,0.559,2.238,1.121,2.801c0.559,1.121,1.68,1.121,2.801,1.121h27.441
	c1.68,0,3.922-1.68,3.922-3.359c0-0.559,3.359-20.16,0-33.039l-1.129-4.48c-2.801-11.199-6.16-22.961-8.961-29.68l-1.117-1.68
	c-2.238-5.039-5.602-12.32-6.16-24.078c15.121-15.681,34.16-17.922,48.16-19.603c3.922-0.559,8.398-1.121,11.199-1.68l5.039-1.121
	c17.922-3.922,59.358-13.44,84-23.52c57.121-23.521,81.762-59.922,82.879-61.039c1.121-2.242,0.563-4.484-1.117-5.602h-0.002
	c-1.68-1.121-3.922-1.121-5.602,0.559c-6.719,6.719-16.801,12.879-29.121,17.922c-5.602-12.879-11.762-17.922-12.319-18.479
	c-1.121-1.121-2.801-1.121-4.481-0.559c-1.68,0.559-2.238,1.68-2.238,3.359c-1.121,11.199-1.121,20.16-1.121,22.961
	c-2.801,1.121-5.039,1.68-7.839,2.238c-7.281-13.441-15.681-27.441-16.238-27.441c-1.121-1.68-2.801-2.238-5.039-1.68
	s-2.801,2.238-2.801,4.48c1.68,11.199,0.559,25.199,0,30.802c-18.48,3.922-34.16,6.16-40.32,5.602h-1.121
	c8.398-11.763,0-30.238-4.48-39.199l-0.559-1.68c-1.121-2.238-2.801-3.922-5.039-5.039c-2.238-0.559-4.48-0.559-6.16,0.559
	c-8.398,4.48-19.039,20.719-22.398,26.879c-1.68,3.922-1.68,7.84-1.121,11.199c-6.16-1.121-12.319-2.801-18.479-4.48
	c15.68-13.441,6.16-40.879,1.68-53.199l-0.559-2.238c-1.121-2.801-2.801-5.039-5.602-6.16c-2.238-1.121-5.039-1.121-7.281,0
	c-11.199,5.039-27.441,24.078-31.922,31.922c-3.359,6.16-2.801,12.879-1.68,17.359c-0.559,0-1.121-0.559-1.68-0.559
	c-3.359-1.121-8.398-2.238-13.441-3.359c4.48-6.16,6.16-13.441,7.281-23.521c1.68-15.121-14-34.719-22.961-44.801
	c-1.68-1.68-3.359-2.801-5.602-2.801c-2.238,0-4.48,1.121-5.602,2.801c-5.602,6.16-15.68,17.922-19.603,27.44
	c-6.719,16.238-7.84,23.521-1.121,36.962H376.63c3.36-6.72,3.923-14.56-0.559-29.681c-2.801-9.52-12.319-21.281-27.44-34.719
	c-1.68-1.68-4.48-2.238-6.719-2.238s-4.48,1.68-6.16,3.922c-3.922,5.602-8.961,14.559-12.879,25.199
	c-7.84,21.84,1.121,38.078,7.281,45.358c-4.48,2.238-8.961,4.48-12.879,7.84c-5.039-20.719-34.72-22.961-48.16-24.641h-2.238
	c-2.801,0-6.16,0.559-7.84,2.801c-1.68,1.68-2.801,3.922-2.801,6.719c0,12.32,10.641,34.719,16.237,42.559
	c3.922,5.602,10.078,7.84,14.56,8.398c-1.121,2.238-2.801,3.922-3.922,6.16l-1.109,1.672c-12.879,19.603-31.359,18.48-41.441,16.238
	c-3.359-1.121-6.719-3.922-10.078-7.84c-5.039-5.039-11.198-11.762-21.84-14c-10.078-3.359-25.762-1.68-34.719-0.559
	c-2.801,0.559-5.602,0.559-6.16,0.559c-6.719-0.559-11.199,8.398-11.762,10.078c-0.559,1.121-0.559,2.238,0,3.359
	s1.68,1.68,2.801,2.238h0.559c-1.68,1.121-3.359,2.801-3.922,5.039C154.881,307.631,153.76,312.111,192.959,321.073z"/>
</svg>
