<?xml version="1.0" encoding="utf-8"?>
<!-- Generator: Adobe Illustrator 16.0.0, SVG Export Plug-In . SVG Version: 6.00 Build 0)  -->
<!DOCTYPE svg PUBLIC "-//W3C//DTD SVG 1.1//EN" "http://www.w3.org/Graphics/SVG/1.1/DTD/svg11.dtd">
<svg version="1.1" id="图层_1" xmlns="http://www.w3.org/2000/svg" xmlns:xlink="http://www.w3.org/1999/xlink" x="0px" y="0px"
	 width="841.89px" height="595.28px" viewBox="0 0 841.89 595.28" enable-background="new 0 0 841.89 595.28" xml:space="preserve">
<path fill="none" stroke="#040000" stroke-linecap="round" stroke-linejoin="round" d="M8.693,427.788l79.802-0.322
	c53.838-2.057,70.971-15.444,70.971-15.444c25.767-5.972,81.175-46.974,81.175-46.974c19.477-18.311,53.35-28.914,53.35-28.914
	l16.451,0.124c2.461,0.165,1.608,2.18,1.608,2.18c-8.028,6.13-21.852,33.472-21.852,33.472c-2.577,5.526-7.457,10.24-7.457,10.24
	c-12.015,13.231-3.272,23.628-3.272,23.628v17.02c2.014,15.849,17.706,14.839,17.706,14.839h32.463c6.811-0.446,3.023-5.4,3.023-5.4
	c-9.438-3.751-15.526-18.144-15.526-18.144l0.729-14.84c10.323-5.973,34.158-33.473,34.158-33.473
	c3.231-4.64,3.913,1.775,3.913,1.775l-2.014,32.577c-2.618,1.411-3.793,6.53-3.793,6.53c-7.415,14.235,4.069,24.559,4.069,24.559
	c2.908,14.278,10.041,19.918,10.041,19.918c5.401,5.402,24.438,4.235,24.438,4.235c13.554,4.518,17.177,2.015,17.177,2.015
	c10.885,0.543,10.632-2.357,10.479-2.927c0.326,0.823,4.766-0.263,4.766-0.263c5.973-2.337-9.876-11.931-9.876-11.931
	c-9.313-6.254-17.904-25.163-17.904-25.163v-12.784l8.913-27.78l9.152-28.789c12.213,4.35,58.312,11.654,58.312,11.654
	c15.974,0.728,39.402-3.23,39.402-3.23c0,1.889-4.642,13.106-4.642,13.106c-5.973,8.715,1.01,18.757,1.01,18.757
	c0.166,8.435,12.785,30.688,12.785,30.688c2.056,13.065,8.756,18.914,8.756,18.914v9.438c0.125,12.656,19.763,12.417,19.763,12.417
	c14.15,3.105,12.939-1.092,12.939-1.092c3.954,2.783,8.145-0.563,8.145-0.563c7.414,2.055,6.852-2.015,6.852-2.015
	c6.53,0.281,5.402-3.346,5.402-3.346c-1.452-5.973-19.836-16.733-19.836-16.733l-0.729-16.003
	c0.166-8.715-9.553-21.501-9.553-21.501c0.562-13.388-2.503-17.736-2.503-17.736v-2.811c4.07-1.608,17.136-11.052,17.136-11.052
	l10.405,0.281c-1.535,1.774-1.932,5.682-1.932,5.682c-0.562,11.495,7.416,21.209,7.416,21.209c0,6.129,2.014,8.591,2.014,8.591
	v6.695c0,6.411,7.747,14.674,7.747,14.674v7.862c0.405,6.978,7.664,5.683,7.664,5.683c0.645,3.47,8.143,3.346,8.143,3.346
	c2.503,3.751,8.872,0,8.872,0c0.323,2.18,8.309,1.134,8.309,1.134l1.208-1.291h3.871l0.489-2.907h4.921
	c-0.166-6.854-8.309-15.85-8.309-15.85c-0.166-7.581-8.144-35.933-8.144-35.933l1.051-18.028l1.133-0.885
	c7.903,0.885,24.602-17.176,24.602-17.176c25.724-0.688,27.342-2.576,27.342-2.576l4.517-0.323
	c4.517,4.069,12.825,4.518,12.825,4.518c16.692,0.728,27.177-14.236,27.177-14.236h13.472c17.342,10.77,29.835,12.056,29.835,12.056
	c15.891,0.166,24.997-12.94,24.997-12.94l-11.641-0.105c-11.208-5.402-5.649-14.403-5.649-14.403
	c29.192-2.502,21.779,20.324,21.779,20.324c20.813,0,25.485-24.402,25.485-24.402c0.728-10.042-2.18-22.983-2.18-22.983
	l22.501-13.94c0,0-5.807,0-29.68-1.17h-0.562c-23.149,0.447-43.474-15.444-43.474-15.444v-17.019
	c2.742-2.742,15.403-7.987,15.403-7.987c19.762-3.912,53.546-20.199,53.546-20.199c4.517-3.595-1.29-3.065-1.29-3.065
	c-4.434,2.908-15.244,4.963-15.244,4.963c-10.646,0.853-21.135,2.295-21.135,2.295c-6.13,2.909-37.824,4.392-37.824,4.392
	l12.18-7.019c26.214-8.433,46.289-28.788,46.289-28.788c2.014-5.807-3.23-1.452-3.23-1.452
	c-9.903,8.424-39.828,14.834-39.828,14.834c-20.324,5.525-42.499,14.277-42.499,14.277c-11.292,6.369-23.794,8.144-23.794,8.144
	c-4.11,0-12.825-7.019-12.825-7.019c-15.974-9.876-12.503-34.315-12.503-34.315c2.907-3.913,0.728-5.359,0.728-5.359
	c-0.885-2.784-6.369-1.332-6.369-1.332l0.083-3.751l-20.157,0.281c-4.351-0.166-7.019-3.345-7.019-3.345
	c-1.135,2.618-11.775,5.972-11.775,5.972c-11.208-0.603-15.567,4.641-15.567,4.641c-5.236,11.65-14.84,15.397-14.84,15.397
	c-2.742,2.055-4.027,16.691-4.027,16.691l-2.577-0.281l-0.488-1.368c-6.295-12.098-19.194-17.134-19.194-17.134
	c-2.336-7.581-10.563-6.895-10.563-6.895c-0.812-6.894-10.688-6.894-10.688-6.894c-2.617-8.434-11.135-5.931-11.135-5.931
	c-2.939-6.015-12.617-6.853-12.617-6.853c-1.733-4.963-10.448-5.931-10.448-5.931c-2.336-5.401-13.023-6.015-13.023-6.015
	c-6.369-7.258-16.775-5.608-16.775-5.608c-3.87-5.231-16.655-4.95-16.655-4.95c-5.277-9.104-19.872-6.815-20.145-6.772
	c-0.04-0.053-0.081-0.107-0.128-0.155c-4.31-4.756-11.613-3.346-11.613-3.346l-4.558,0.125c-3.512-3.429-11.933-2.056-11.933-2.056
	l-3.304-0.083c-2.221-3.304-11.208-1.452-11.208-1.452h-4.963c-5.328-2.618-6.696,0.083-6.696,0.083l-7.415-0.198
	c-2.618-1.931-10.563,0-10.563,0l-6.452,0.77c-6.212-2.295-11.572,1.332-11.572,1.332c-11.655,0-15.848,3.471-15.848,3.471
	c-13.836-0.125-18.07,6.253-18.07,6.253c-7.54-2.014-18.591,5.683-18.591,5.683c-11.931,0-17.623,9.313-17.623,9.313
	c-11.457-1.009-17.707,12.659-17.707,12.659c-11.817,0.562-17.623,16.691-17.623,16.691c-7.134,0.885-12.66,15.567-12.66,15.567
	c-6.369,1.452-8.991,13.669-8.991,13.669c-11.093,4.674-11.655,17.02-11.655,17.02c-9.595,4.797-7.987,18.632-7.987,18.632
	c-6.411,2.179-6.853,10.77-6.853,10.77c-7.539,1.609-6.369,14.965-6.369,14.965c-7.581,1.452-6.572,10.489-6.572,10.489
	c-9.272,4.963-8.992,14.116-8.992,14.116c-9.032,5.65-8.59,14.84-8.59,14.84c-5.807,2.295-8.991,11.619-8.991,11.619
	c-6.572,2.336-12.658,13.834-12.658,13.834c-10.927,5.526-10.042,12.618-10.042,12.618c-8.59,7.747-9.471,12.982-9.471,12.982
	c-11.176,0.729-9.153,9.152-9.153,9.152c-8.143,0.125-12.056,7.862-12.056,7.862c-8.309,0.406-10.042,6.655-10.042,6.655
	c-12.784,0.604-11.333,5.401-11.333,5.401c-12.659-0.604-11.655,3.47-11.655,3.47c-10.042-0.563-9.719,3.794-9.719,3.794
	c-10.77-1.172-10.199,2.46-10.199,2.46c-12.057-0.729-10.77,3.064-10.77,3.064c-9.152-0.562-9.152,2.337-9.152,2.337
	c-10.324-0.166-9.314,2.742-9.314,2.742c-11.051-0.562-10.042,2.502-10.042,2.502C11.268,420.442,8.693,427.788,8.693,427.788z"/>
</svg>
