<?xml version="1.0" encoding="utf-8"?>
<!-- Generator: Adobe Illustrator 16.0.0, SVG Export Plug-In . SVG Version: 6.00 Build 0)  -->
<!DOCTYPE svg PUBLIC "-//W3C//DTD SVG 1.1//EN" "http://www.w3.org/Graphics/SVG/1.1/DTD/svg11.dtd">
<svg version="1.1" id="图层_1" xmlns="http://www.w3.org/2000/svg" xmlns:xlink="http://www.w3.org/1999/xlink" x="0px" y="0px"
	 width="595.28px" height="841.89px" viewBox="0 0 595.28 841.89" enable-background="new 0 0 595.28 841.89" xml:space="preserve">
<path fill="none" stroke="#040000" stroke-linecap="round" stroke-linejoin="round" d="M33.291,323.382l8.216,10.3l7.91-10.535
	c3.328-4.415,9.064-20.727,12.661-27.55c1.195,13.111,5.766,24.919,9.466,37.334c8.324-14.227,15.669-28.485,26.641-41.165
	c0.571,4.87,2.331,9.164,4.048,13.669l8.199,1.585c-14.203,12.669-26.864,27.083-37.717,42.753
	c-20.39,29.483-55.1,97.244-32.541,132.464c9.447,14.757,26.889,8.697,39.928,2.522c25.436-12.048,28.252-15.081,54.661-17.297
	c-1.411-11.658-2.805-23.768-1.352-35.191c6.517,10.403,15.904,20.085,23.886,29.504l2.715-42.105l12.499,17.166
	c8.576-22.575,17.068-45.056,30.817-65.26c-5.43,30.072-1.208,62.379,13.465,94.079l11.351,24.518
	c7.352-24.758,11.586-42.717,26.493-64.928l0.114,0.103l9.346-10.901c6.502,117.839-9.39,242.418-43.906,372.581
	c39.159,17.7,78.313,18.233,117.479,1.609c4.218-140.963-1.904-286.376-26.301-439.603l-0.02-0.003
	c4.211-0.294,8.511-1.646,12.133-3.832c22.343,18.671,28.18,39.196,34.294,66.614l9.285-1.31l-3.566,6.691l18.234,54.817
	c12.258-9.894,25.111-19.065,35.748-30.783c46.288-50.979,11.754-126.247,12.751-128.361c3.963,4.811,11.357,19.718,14.672,29.97
	c11.778,3.346,23.568,6.703,35.353,10.048c26.258,12.787,73.495,45.238,78.554,46.619c12.835-8.307,0.131-80.858-20.674-107.473
	c-23.604-30.192-76.445-51.303-127.833-64.535l53.472-31.748c32.181,2.39,40.008-17.706,36.776-48.012
	c24.228,9.295,43.67,10.378,29.615-45.966c-1.647-10.569-7.738-19.772-44.939-19.405c-44.686,6.468-90.481,21.792-137.893,50.055
	c-6.715,9.627-13.069,19.537-18.979,29.765c2.401-39.274-4.62-76.139-30.957-101.767c-40.9-25.496-81.801-17.796-127.027-34.637
	c3.856,17.515,7.922,33.461,12.246,49.102c16.251-1.894,27.362,4.198,38.479,14.847c-10.929-1.28-21.849-0.205-32.773,6.114
	c2.971,26.828,12.509,53.717,25.536,79.549c-49.664,0.367-130.085,17.898-165.455,52.193
	C23.801,251.429,14.617,299.97,33.291,323.382z"/>
</svg>
