<?xml version="1.0" encoding="utf-8"?>
<!-- Generator: Adobe Illustrator 16.0.0, SVG Export Plug-In . SVG Version: 6.00 Build 0)  -->
<!DOCTYPE svg PUBLIC "-//W3C//DTD SVG 1.1//EN" "http://www.w3.org/Graphics/SVG/1.1/DTD/svg11.dtd">
<svg version="1.1" id="图层_1" xmlns="http://www.w3.org/2000/svg" xmlns:xlink="http://www.w3.org/1999/xlink" x="0px" y="0px"
	 width="841.89px" height="595.28px" viewBox="0 0 841.89 595.28" enable-background="new 0 0 841.89 595.28" xml:space="preserve">
<path fill="none" stroke="#040000" stroke-linecap="round" stroke-linejoin="round" d="M166.315,479.883
	c7.254,9.379,17.305,25.004,17.305,30.97c-0.133,2.772-0.516,5.526-1.148,8.23c-1.43,7.336-4.117,21.026,11.031,24.051
	c17.555,3.527,43.512-23.969,46.563-33.152v0.004c2.297-4.68,5.82-8.648,10.194-11.479c4.227-2.801,10.695-5.879,17.388-3.641
	c16.801,5.602,24.414,0.758,35.112-5.879l4.34-2.66c1.793-1.047,3.441-2.328,4.898-3.809c10.023-10.023,14.758-29.457,11.031-44.017
	c7.582-0.727,14.703-3.957,20.246-9.184l0.391-0.391c10.108-10.526,9.492-25.762,9.129-34.858v-3.445
	c0-9.715-1.875-21.813-16.492-29.121c-3.754-1.875-10.527-5.992-18.395-10.754l-6.945-4.141c4.996-3.23,9.633-6.984,13.832-11.203
	c7.84-7.813,14.53-17.724,14.53-27.609v-7.422c7.699,0,18.984,0.645,26.603,4.48v0.004c3.168,1.434,6.699,1.883,10.129,1.289
	s6.602-2.203,9.105-4.621c7.254-6.242,13.469-20.021,7.391-38.277c-8.035-24.108-20.215-60.535,22.397-98.168
	c46.984-41.469,118.61-61.905,182.421-52.108c56,8.652,69.16,17.051,77.812,22.625v0.004c1.945,1.297,3.953,2.492,6.02,3.582
	c2.184,1.117,4.836,0.688,6.555-1.063l0.309-0.336h-0.004c1.719-1.969,1.844-4.863,0.309-6.973
	c-12.852-17.896-64.901-66.138-151.09-74.48l0.01-0.007c-86.492-8.398-154.84,12.738-228.51,70.646
	c-64.57,50.706-82.488,94.19-86.383,106.319c-1.074,3.273-0.965,6.82,0.309,10.023l8.793,22.09
	c-2.184,9.52-2.801,31.078,4.621,38.387c1.23,1.23,3.191,3.527,5.434,6.215c3.836,4.535,8.766,10.388,14.254,15.793l-0.004,0.004
	c-0.328,0.219-0.637,0.461-0.926,0.727l-0.309,0.309c-5.879,5.852-2.297,16.574-1.121,20.16c1.82,5.434-2.465,19.402-9.324,26.267
	c-6.859,6.859-16.07,25.03-11.898,33.039l-0.254,0.953l0.004-0.004c-1.656,4.73-1.164,9.945,1.344,14.28
	c-2.492,2.605-2.801,6.469-3.023,10.949c-0.223,3.445-0.559,8.625-2.184,10.246c-2.801,2.801-22.397,6.355-36.094,6.355
	c-11.647,0-23.715,0-30.801,7C152.007,465.293,161.218,474.703,166.315,479.883z"/>
</svg>
