<svg xmlns="http://www.w3.org/2000/svg" pointer-events="none" class="leaflet-zoom-animated" width="1414" height="839" viewBox="-124 -500 1414 839" style="transform: translate3d(-124px, -500px, 0px);"><g><path class="leaflet-interactive" stroke="black" stroke-opacity="1" stroke-width="1" stroke-linecap="round" stroke-linejoin="round" fill="#fff" fill-opacity="0.2" fill-rule="evenodd" d="M450 -205L442 -214L435 -228L439 -230L437 -234L426 -246L416 -260L366 -293L355 -294L340 -291L281 -262L268 -249L222 -196L241 -192L346 -74L387 -36L407 -20L423 -48L429 -52L452 -52L479 -38L534 -1L585 22L633 33L691 61L732 78L760 85L784 86L804 81L850 56L858 45L861 31L859 15L855 0L846 -75L656 -124L603 -144L592 -144L581 -150L574 -152L572 -149L567 -150L547 -160L528 -176L509 -183L499 -191L473 -195L460 -201zM703 187L707 186L712 189L716 189L717 187L715 157L713 142L704 127L696 118L676 104L662 100L643 90L626 87L577 68L562 64L555 56L549 39L545 37L515 30L509 31L506 34L507 40L531 57L552 80L636 130L678 158L692 183L700 187zM1040 94L1044 94L1042 92L1041 93zM719 147L720 168L723 175L728 182L748 200L757 202L766 200L791 203L814 210L846 213L876 211L916 224L927 232L935 234L940 228L953 190L953 183L949 178L894 175L829 164L751 132L739 131L731 127L721 126L713 128L718 141zM592 72L598 70L598 65L579 47L558 42L555 44L556 49L562 56L585 71z"/></g></svg>