<svg xmlns="http://www.w3.org/2000/svg" pointer-events="none" class="leaflet-zoom-animated" width="1414" height="839" viewBox="-102 179 1414 839" style="transform: translate3d(-102px, 179px, 0px);"><g><path class="leaflet-interactive" stroke="black" stroke-opacity="1" stroke-width="1" stroke-linecap="round" stroke-linejoin="round" fill="#fff" fill-opacity="0.2" fill-rule="evenodd" d="M401 801L406 798L411 806L417 807L419 811L418 817L424 824L433 824L453 834L460 834L463 851L460 849L457 850L452 848L441 849L435 843L424 838L424 845L411 843L414 856L433 884L451 884L455 889L458 889L468 878L483 874L521 878L522 882L512 896L501 904L507 920L520 923L530 922L531 927L536 926L539 921L550 914L559 905L561 892L563 888L568 886L571 881L577 879L578 876L582 877L586 874L586 868L583 859L584 855L587 853L588 854L592 847L584 841L586 828L591 829L598 834L608 810L625 813L631 807L639 803L643 797L647 796L649 799L653 798L656 793L661 790L662 784L666 781L669 781L676 786L682 783L682 772L689 772L687 768L689 762L693 761L700 763L704 767L707 764L707 760L711 757L713 760L721 764L731 759L739 765L743 762L749 764L752 762L758 764L767 762L768 759L771 759L774 762L778 763L779 770L782 772L792 771L799 774L803 772L807 775L815 776L817 780L824 784L824 791L838 792L842 796L838 798L839 801L844 800L848 806L848 811L854 811L855 813L853 814L865 815L870 821L878 820L878 823L875 828L875 833L878 835L883 835L887 831L890 834L897 833L906 837L909 840L911 838L916 841L916 839L922 836L929 836L931 834L934 839L943 839L945 843L946 839L949 840L951 844L960 843L960 851L962 851L964 847L976 847L980 852L985 854L992 852L991 855L993 858L998 845L996 844L999 840L999 838L996 836L999 831L995 825L1000 824L1000 822L994 818L992 813L994 798L1000 795L1007 788L1015 792L1018 789L1048 789L1054 786L1064 785L1063 784L1065 781L1065 774L1070 771L1079 758L1083 758L1083 755L1079 749L1080 745L1078 747L1071 740L1069 735L1069 728L1060 724L1057 726L1055 725L1055 721L1051 719L1046 719L1044 715L1042 703L1044 700L1048 700L1051 697L1040 677L1040 674L1036 670L1035 665L1032 661L1032 659L1035 656L1033 654L1035 650L1039 652L1039 649L1045 649L1046 635L1044 635L1044 632L1040 631L1033 623L1039 614L1040 606L1020 607L1001 605L1001 600L998 599L996 596L998 594L999 586L995 569L992 565L992 559L988 557L988 555L981 547L985 541L982 534L977 531L976 527L969 516L969 514L973 510L980 508L987 500L1008 465L1013 450L1017 448L1011 419L1006 409L1007 407L1004 404L1004 400L1002 397L1003 395L999 391L1000 386L998 384L998 379L989 374L969 377L924 371L921 374L916 374L891 387L888 384L882 382L863 382L834 375L791 376L780 371L753 377L741 378L734 383L726 385L689 382L659 383L646 372L640 371L608 384L604 395L564 406L516 413L479 427L384 472L314 502L244 545L233 545L231 571L227 596L231 635L233 643L248 679L251 695L249 700L260 713L262 718L263 731L273 737L292 754L307 762L319 773L333 779L343 780L363 790L377 791L394 795L401 801z"/></g></svg>