<svg xmlns="http://www.w3.org/2000/svg" pointer-events="none" class="leaflet-zoom-animated" width="1414" height="839" viewBox="-124 -128 1414 839" style="transform: translate3d(-124px, -128px, 0px);"><g><path class="leaflet-interactive" stroke="black" stroke-opacity="1" stroke-width="1" stroke-linecap="round" stroke-linejoin="round" fill="#fff" fill-opacity="0" fill-rule="evenodd" d="M538 431L548 429L570 429L574 436L605 436L610 437L612 439L614 437L620 439L624 438L642 446L657 459L661 467L662 466L667 471L670 470L675 473L679 479L677 481L679 484L681 484L682 482L682 484L690 490L689 496L691 500L688 531L685 531L682 546L683 557L701 585L789 589L796 594L810 619L829 609L817 582L818 578L840 557L846 546L850 515L848 485L844 457L834 416L824 390L812 374L770 327L766 319L744 298L712 263L664 189L649 172L559 111L514 99L502 94L489 112L489 119L497 130L505 135L520 141L527 146L531 151L532 175L537 187L537 192L535 199L527 208L517 216L507 220L492 220L483 224L482 229L492 240L494 248L488 260L483 266L469 270L462 276L461 281L464 296L455 307L459 316L464 321L465 324L461 335L467 336L466 335L468 334L470 335L470 337L471 335L472 336L470 330L475 328L476 324L480 324L481 329L486 327L488 333L490 331L489 329L495 327L497 332L503 332L509 329L515 333L517 331L520 337L523 335L522 334L527 332L530 335L528 336L533 343L532 347L534 346L536 350L533 352L531 350L530 352L524 353L525 354L522 356L523 360L526 362L530 359L541 362L528 368L530 369L525 371L525 373L528 373L524 374L524 376L522 376L521 378L522 381L516 385L517 391L526 387L527 390L528 389L532 393L530 394L529 409L527 411L525 410L526 414L529 413L530 409L532 409L531 410L535 412L537 409L536 408L539 407L541 414L535 420L539 425L536 429L538 431zM809 247L808 253L813 280L816 288L821 295L829 296L848 293L859 267L859 245L857 242L828 234L815 235L812 239zM765 225L765 238L770 247L784 264L792 265L794 263L796 255L798 239L795 231L776 224L771 224z"/></g></svg>