<svg xmlns="http://www.w3.org/2000/svg" pointer-events="none" class="leaflet-zoom-animated" width="1414" height="839" viewBox="-394 164 1414 839" style="transform: translate3d(-394px, 164px, 0px);"><g><path class="leaflet-interactive" stroke="black" stroke-opacity="1" stroke-width="1" stroke-linecap="round" stroke-linejoin="round" fill="#fff" fill-opacity="0.2" fill-rule="evenodd" d="M454 714L456 714L458 717L466 714L473 706L493 692L533 648L556 644L559 637L555 631L559 621L584 606L593 600L596 596L600 595L612 586L610 580L608 579L608 575L611 572L609 564L607 563L595 565L591 560L593 552L588 552L585 550L587 544L585 541L578 546L570 544L567 539L570 537L571 534L570 532L566 532L569 528L567 525L561 522L561 518L557 513L553 510L547 511L545 508L545 502L549 502L555 498L550 492L550 489L556 486L556 480L555 475L553 473L547 472L542 469L538 463L538 453L547 449L547 446L542 443L542 441L549 441L551 437L550 433L544 428L547 425L547 423L543 419L544 416L547 414L542 408L546 403L544 401L538 401L539 397L536 392L537 389L540 388L535 377L537 374L536 369L532 370L529 378L525 376L527 372L527 367L525 365L517 366L508 371L503 376L497 376L494 378L490 377L486 379L484 377L472 379L470 383L465 386L464 384L458 382L455 378L452 377L445 384L440 381L434 381L432 382L433 383L430 387L426 385L427 384L425 381L423 381L420 378L416 380L412 378L412 376L409 376L407 373L402 374L388 385L385 390L385 399L380 400L382 411L374 413L370 419L324 426L330 472L325 483L320 483L319 486L316 488L324 506L320 510L320 512L316 514L318 517L315 518L315 521L302 523L300 518L301 516L298 515L296 505L289 503L283 497L283 494L281 492L279 493L275 501L271 501L270 482L261 467L245 467L247 483L241 482L241 484L237 488L238 490L236 490L233 495L232 494L231 497L229 496L227 499L224 495L224 491L222 489L219 490L219 487L216 483L208 480L206 481L205 479L196 476L194 472L194 465L188 462L187 456L182 455L180 449L178 450L177 453L176 451L167 448L165 446L166 444L164 443L160 443L160 445L155 445L151 439L145 438L146 440L137 445L136 447L140 449L145 455L144 463L146 464L147 467L144 473L146 478L144 478L140 482L136 489L138 491L137 493L134 494L135 498L131 501L130 499L130 501L126 503L123 507L117 505L115 510L120 514L118 516L119 518L135 526L140 525L145 527L145 522L155 518L160 520L168 520L174 525L180 544L179 550L173 551L174 558L178 562L180 574L191 583L210 592L212 599L206 608L206 629L223 634L221 652L219 655L214 658L205 658L203 664L199 668L201 687L197 699L193 703L195 717L194 727L188 727L188 731L190 735L192 735L193 737L193 741L195 743L194 745L198 754L196 756L198 761L207 762L210 764L205 768L201 765L197 770L198 773L207 771L209 775L201 781L198 789L200 804L205 811L203 813L216 819L217 823L221 828L219 835L221 838L229 840L232 839L233 881L228 892L233 899L236 901L267 900L296 888L302 888L305 885L307 879L318 866L335 859L369 833L384 831L387 827L387 822L389 819L398 813L400 814L401 811L414 800L414 798L425 794L429 791L438 789L444 783L457 780L457 775L443 753L438 742L452 723L452 715z"/></g></svg>