<svg xmlns="http://www.w3.org/2000/svg" pointer-events="none" class="leaflet-zoom-animated" width="1414" height="839" viewBox="121 263 1414 839" style="transform: translate3d(121px, 263px, 0px);"><g><path class="leaflet-interactive" stroke="black" stroke-opacity="1" stroke-width="1" stroke-linecap="round" stroke-linejoin="round" fill="#fff" fill-opacity="0.2" fill-rule="evenodd" d="M824 778L812 792L789 811L720 851L722 858L727 863L729 878L738 892L744 898L749 912L755 916L768 921L789 942L798 948L802 948L803 950L817 952L821 954L824 953L830 955L840 955L858 953L884 945L880 952L881 956L879 958L879 970L881 974L884 974L884 972L886 972L887 970L896 969L897 967L903 965L901 957L902 954L907 957L907 963L910 966L908 967L907 971L913 978L913 980L909 984L910 986L914 987L917 996L914 998L914 1001L922 1007L922 1014L927 1024L932 1026L942 1013L954 993L963 985L968 988L977 985L982 985L986 988L988 982L992 981L997 973L1004 980L1004 974L1008 972L1008 958L1006 949L1003 945L999 943L999 940L1003 936L1005 938L1007 936L1013 936L1018 940L1025 934L1029 933L1029 926L1031 926L1033 923L1041 921L1048 921L1055 924L1055 926L1058 928L1060 926L1061 928L1064 928L1065 925L1067 926L1073 922L1073 919L1075 916L1077 916L1077 907L1074 899L1076 890L1078 890L1073 883L1074 882L1072 884L1068 883L1068 881L1065 882L1061 880L1061 877L1066 873L1066 869L1070 866L1083 866L1087 863L1107 868L1119 866L1122 864L1122 862L1127 865L1129 859L1131 858L1136 858L1138 860L1137 859L1141 856L1141 854L1139 854L1141 854L1139 850L1140 846L1138 846L1139 842L1137 840L1137 824L1135 822L1136 810L1143 808L1144 806L1142 806L1145 800L1144 799L1146 799L1149 806L1151 807L1155 802L1164 806L1168 806L1169 804L1171 804L1171 801L1168 799L1166 793L1165 792L1163 793L1164 795L1161 795L1159 791L1161 786L1160 778L1156 777L1155 776L1157 776L1152 773L1152 768L1157 767L1154 764L1167 759L1165 757L1171 749L1166 745L1169 742L1172 742L1172 739L1167 738L1166 734L1179 731L1181 727L1184 724L1187 724L1187 722L1191 719L1191 721L1197 720L1196 718L1200 713L1203 720L1205 718L1206 720L1208 720L1210 716L1212 717L1215 715L1220 715L1224 708L1228 710L1228 708L1230 709L1229 711L1231 711L1230 710L1238 705L1248 688L1218 661L1166 602L1150 598L1135 589L1098 590L1088 588L1082 585L1070 567L1041 501L1036 497L1033 490L1026 488L977 496L963 492L932 479L918 477L890 494L884 500L883 513L885 521L891 526L887 533L888 535L889 534L891 536L895 536L912 543L919 544L919 548L927 552L932 564L936 564L942 570L942 575L939 578L939 582L942 585L942 587L947 588L951 585L951 588L956 585L963 594L967 606L965 607L965 609L961 610L960 613L962 619L967 621L965 625L959 628L959 630L957 629L955 631L954 633L956 640L952 643L964 646L966 649L963 652L966 654L964 657L967 661L964 663L959 662L956 664L955 667L951 668L950 665L946 667L949 679L954 677L956 678L956 674L961 674L965 678L967 690L969 691L969 700L967 703L964 699L953 707L951 707L948 712L951 719L950 721L942 725L940 724L937 726L936 729L931 729L929 733L924 732L916 734L906 732L908 735L905 733L904 734L903 732L825 776z"/></g></svg>