<?xml version="1.0" encoding="iso-8859-1"?>
<svg xmlns="http://www.w3.org/2000/svg" xmlns:xlink="http://www.w3.org/1999/xlink" 	width="100%" height="100%" preserveAspectRatio="xMidYMax" viewBox="106.236501 37.233293 0.099592 0.132978">
<title> SVG from Global Mapper </title>
<g transform="scale(1.0,-1.0) translate(0,-74.599563)">
<rect x="106.236501" y="37.233293" width="0.099592" height="0.132978" style="fill:rgb(255,255,255);stroke:none"/>
<g id="Unknown_Line_Type_30m_____1_100m_shp" style="fill:none;stroke:rgb(0,0,0);stroke-width:0.0000995918;stroke-linecap:round">
	<polyline id="1" points="106.2365,37.273947 106.23739,37.27324 106.23796,37.272163 106.23873,37.271594 106.23966,37.270524 106.24057,37.269775 106.2415,37.268219 106.24311,37.267404 106.24271,37.266723 106.24108,37.26566 106.24052,37.264886 106.24047,37.264548 106.24069,37.264087 106.24226,37.263242 106.24134,37.261585 106.2414,37.260588 106.24163,37.26008 106.24203,37.259636 106.2436,37.258706 106.24413,37.258063 106.24435,37.256543 106.24421,37.254834 106.24481,37.253332 106.24475,37.252251 106.245,37.251457 106.24563,37.250744 106.24696,37.250454 106.2475,37.250146 106.24795,37.248879 106.24817,37.248663 106.24979,37.248257 106.25063,37.247515 106.25047,37.24707 106.24937,37.245745 106.2492,37.245253 106.2492,37.244871 106.24963,37.24382 106.24953,37.242126 106.2497,37.241513 106.25196,37.239645 106.2534,37.239003 106.25472,37.237405 106.25663,37.235985 106.25667,37.235722 106.25638,37.235422 106.25595,37.235272 106.25401,37.235059 106.25388,37.234897 106.2539,37.234377 106.25419,37.233293"/>
	<polyline id="2" points="106.2365,37.278022 106.23676,37.277666 106.23678,37.277343 106.2365,37.277035"/>
	<polyline id="3" points="106.33609,37.349008 106.33528,37.350501 106.3341,37.351772 106.33304,37.35324 106.33024,37.355423 106.32906,37.356713 106.32749,37.357233 106.3265,37.359163 106.32588,37.359472 106.3249,37.359634 106.32442,37.359936 106.32326,37.361268 106.32219,37.362007 106.32127,37.363051 106.32048,37.363617 106.31876,37.36443 106.31704,37.364236 106.31606,37.364532 106.31559,37.364898 106.31506,37.365957 106.31468,37.36627"/>
	<polyline id="4" points="106.31728,37.233293 106.31869,37.23452 106.31998,37.235041 106.32164,37.236561 106.32271,37.237888 106.32334,37.239079 106.3246,37.240035 106.32528,37.241617 106.32576,37.24237 106.32852,37.244622 106.3296,37.245929 106.33099,37.247101 106.33212,37.24851 106.33348,37.249601 106.33488,37.251538 106.33609,37.252677"/>
	<polyline id="5" points="106.2365,37.302665 106.23657,37.302159 106.23689,37.301498 106.23713,37.30128 106.23842,37.30084 106.23882,37.30037 106.23909,37.299599 106.23942,37.298103 106.23945,37.296913 106.23931,37.295562 106.2389,37.29406 106.23898,37.293119 106.23975,37.292237 106.24158,37.290733 106.2425,37.288372 106.24444,37.285726 106.24586,37.284699 106.24635,37.282438 106.24652,37.280753 106.24696,37.280405 106.24841,37.280064 106.24866,37.279866 106.24918,37.278916 106.25038,37.277918 106.25129,37.276341 106.25293,37.274698 106.25454,37.273853 106.25691,37.272912 106.2594,37.272349 106.25973,37.271972 106.25981,37.271743 106.25955,37.271248 106.25731,37.269379 106.25655,37.268521 106.25635,37.267995 106.25652,37.267399 106.25611,37.267201 106.25392,37.266698 106.25362,37.266439 106.25353,37.266091 106.25382,37.265057 106.25528,37.262878 106.25712,37.260936 106.25779,37.26 106.25885,37.259475 106.25903,37.259258 106.25904,37.258997 106.25883,37.258671 106.25777,37.257375 106.25751,37.256507 106.25805,37.254864 106.25964,37.251785 106.25974,37.250828 106.25798,37.249848 106.25774,37.249139 106.25769,37.248264 106.258,37.247342 106.25915,37.246024 106.25927,37.245701 106.25926,37.244081 106.25996,37.242739 106.26207,37.240032 106.26215,37.239722 106.26207,37.23801 106.26221,37.237416 106.26258,37.23696 106.26325,37.23652 106.26438,37.236345 106.26522,37.236427 106.26578,37.236732 106.26644,37.237898 106.26676,37.238209 106.26709,37.238393 106.26758,37.238236 106.26826,37.237323 106.26834,37.236526 106.26766,37.234991 106.26747,37.234015 106.26756,37.233605 106.26826,37.23341 106.26972,37.233884 106.27043,37.234557 106.27057,37.235066 106.27029,37.235894 106.27037,37.236553 106.27056,37.236717 106.27283,37.236506 106.27321,37.236072 106.27315,37.233293"/>
	<polyline id="6" points="106.2365,37.313513 106.237,37.313082 106.23713,37.312326 106.23654,37.309944 106.2368,37.304284 106.2365,37.303173"/>
	<polyline id="7" points="106.2365,37.345134 106.23705,37.344699 106.23783,37.344398 106.24045,37.343904 106.24149,37.343443 106.24326,37.342975 106.24189,37.342508 106.24139,37.342137 106.24156,37.340592 106.24143,37.340487 106.24064,37.340511 106.23934,37.340787 106.2365,37.340964"/>
	<polyline id="8" points="106.25514,37.36627 106.25568,37.364799 106.25571,37.364589 106.25554,37.364387 106.25464,37.36451 106.25294,37.365594 106.25224,37.36561 106.25193,37.365384 106.25193,37.364675 106.25207,37.364357 106.25413,37.361129 106.2547,37.359926 106.25481,37.35884 106.25444,37.358611 106.25329,37.35868 106.25226,37.359168 106.25059,37.360434 106.24911,37.361116 106.24671,37.362849 106.24509,37.363707 106.24461,37.363887 106.24385,37.363933 106.24317,37.363799 106.24295,37.363637 106.24272,37.363009 106.24306,37.362401 106.24421,37.361536 106.24564,37.360022 106.24585,37.359534 106.24558,37.359232 106.24476,37.359059 106.24237,37.359379 106.24152,37.359308 106.23976,37.358881 106.23893,37.358493 106.23813,37.357887 106.23779,37.356311 106.23715,37.354339 106.23724,37.353718 106.23791,37.353083 106.2415,37.351847 106.24182,37.351232 106.24163,37.350444 106.24114,37.349649 106.24069,37.349292 106.24023,37.349164 106.23899,37.349262 106.23789,37.349681 106.2365,37.349936"/>
	<polyline id="9" points="106.26693,37.36627 106.2674,37.365307 106.26747,37.364504 106.26725,37.363771 106.26588,37.364571 106.26388,37.36627"/>
	<polyline id="10" points="106.2856,37.36627 106.28467,37.364942 106.28432,37.364657 106.28356,37.364491 106.28215,37.364617 106.28048,37.36627"/>
	<polyline id="11" points="106.33609,37.328295 106.3358,37.328903 106.33453,37.330282 106.33391,37.33127 106.33191,37.333815 106.33039,37.33528 106.32923,37.33613 106.32788,37.337732 106.32679,37.339467 106.32611,37.340908 106.32509,37.341928 106.3241,37.34344 106.32367,37.343848 106.32227,37.344612 106.32118,37.345519 106.32069,37.346714 106.31961,37.348151 106.31896,37.349549 106.31651,37.352474 106.31562,37.353231 106.31503,37.353573 106.31389,37.353939 106.31279,37.354576 106.31184,37.355289 106.31116,37.356263 106.31073,37.356597 106.31004,37.356868 106.30818,37.357117 106.30705,37.357529 106.30591,37.357735 106.30516,37.358058 106.30395,37.358988 106.30212,37.359271 106.30167,37.359668 106.30132,37.36055 106.30084,37.360891 106.30005,37.360976 106.29813,37.36056 106.29729,37.360503 106.29551,37.360917 106.29475,37.362294 106.29451,37.362452 106.29416,37.362472 106.29267,37.362046 106.2921,37.362114 106.29122,37.363706 106.29082,37.364127 106.2896,37.364959 106.28878,37.36627"/>
	<polyline id="12" points="106.29728,37.233293 106.29814,37.234173 106.29956,37.234498 106.30027,37.234332 106.302,37.233293"/>
	<polyline id="13" points="106.30293,37.233293 106.304,37.234176 106.30418,37.234608 106.30422,37.234973 106.30367,37.236014 106.3038,37.236634 106.30613,37.236824 106.30709,37.23705 106.30789,37.237445 106.3073,37.238561 106.30612,37.239841 106.30607,37.240075 106.30707,37.241585 106.30715,37.242324 106.30745,37.243089 106.30872,37.243721 106.30944,37.24452 106.30955,37.244823 106.3095,37.245823 106.30967,37.246151 106.31037,37.246786 106.31157,37.247505 106.31315,37.249019 106.31486,37.249375 106.31585,37.249788 106.31783,37.251157 106.3192,37.252322 106.31974,37.253198 106.32025,37.254568 106.32046,37.255971 106.32101,37.257911 106.32164,37.25898 106.32244,37.259803 106.32361,37.260592 106.32428,37.261263 106.3252,37.263222 106.32577,37.263952 106.32735,37.26498 106.33056,37.267506 106.33381,37.270845 106.3344,37.271524 106.33609,37.274461"/>
	<polyline id="14" points="106.26721,37.360122 106.26624,37.36066 106.26434,37.360981 106.2634,37.36163 106.26286,37.362231 106.26196,37.362697 106.2618,37.362909 106.26133,37.363092 106.2611,37.3629 106.2612,37.36228 106.26135,37.362069 106.26239,37.361087 106.26326,37.360657 106.26416,37.359141 106.26415,37.358823 106.26293,37.357914 106.26289,37.357261 106.26323,37.356145 106.26388,37.355463 106.2644,37.355236 106.26516,37.355068 106.26684,37.35504 106.2672,37.354713 106.26669,37.354032 106.26611,37.353734 106.2622,37.353353 106.26133,37.353154 106.26098,37.3529 106.26095,37.352553 106.26111,37.351808 106.26145,37.351265 106.26131,37.351117 106.26065,37.351053 106.25986,37.351189 106.2591,37.35088 106.25868,37.350144 106.25841,37.34883 106.25808,37.348491 106.2573,37.348467 106.2566,37.348697 106.25464,37.349901 106.25256,37.350678 106.2514,37.350837 106.25062,37.350656 106.25033,37.350402 106.25019,37.349675 106.25067,37.348577 106.25074,37.347909 106.24997,37.346312 106.24959,37.345181 106.2494,37.344279 106.24953,37.343506 106.24981,37.34303 106.25064,37.342692 106.2545,37.342023 106.25553,37.341701 106.25572,37.341516 106.25574,37.34125 106.25515,37.340049 106.25512,37.33966 106.25538,37.338915 106.25538,37.338548 106.25521,37.338099 106.25481,37.337759 106.25441,37.337661 106.25232,37.338028 106.25007,37.338237 106.24969,37.338261 106.24893,37.338037 106.24982,37.336323 106.24896,37.335889 106.24731,37.335546 106.2471,37.335394 106.24692,37.334748 106.2472,37.334131 106.24798,37.333217 106.24815,37.332798 106.24802,37.330684 106.24817,37.328852 106.24719,37.326848 106.24519,37.324694 106.24476,37.323978 106.24477,37.323776 106.24563,37.322647 106.24581,37.322082 106.2457,37.319101 106.24588,37.31801 106.24755,37.314641 106.24753,37.313037 106.24767,37.312244 106.249,37.309527 106.2485,37.307668 106.24836,37.306368 106.24833,37.304237 106.24867,37.30233 106.24863,37.300685 106.24897,37.300152 106.24984,37.299551 106.2499,37.298894 106.24972,37.297934 106.24988,37.297431 106.25074,37.296286 106.25077,37.295527 106.25061,37.294711 106.25079,37.294233 106.25118,37.293725 106.2525,37.292539 106.25359,37.291096 106.25378,37.290395 106.25379,37.28957 106.25398,37.289037 106.25557,37.288129 106.25573,37.287602 106.25567,37.287287 106.25519,37.286501 106.25517,37.286089 106.25559,37.284826 106.25628,37.283855 106.25697,37.283249 106.25823,37.282465 106.25978,37.281163 106.2611,37.279557 106.26282,37.278841 106.26386,37.27815 106.26592,37.277288 106.26635,37.276907 106.26659,37.276373 106.26648,37.274827 106.26593,37.274069 106.26469,37.272901 106.26389,37.2711 106.26356,37.2695 106.26358,37.269106 106.26386,37.268557 106.26445,37.267941 106.26554,37.267356 106.26601,37.266562 106.26609,37.264079 106.266,37.263157 106.26562,37.262465 106.26484,37.262015 106.2645,37.261595 106.26437,37.260799 106.26566,37.259219 106.26619,37.257465 106.26633,37.256498 106.2669,37.255728 106.26666,37.255075 106.26548,37.254031 106.2647,37.252428 106.26471,37.249803 106.2648,37.249269 106.26516,37.248704 106.26579,37.248362 106.26727,37.248217 106.26887,37.24659 106.26721,37.246117 106.26547,37.246034 106.2644,37.245596 106.2637,37.244937 106.26357,37.244557 106.26355,37.244135 106.26375,37.243436 106.26408,37.243156 106.2648,37.243091 106.26799,37.244468 106.26975,37.244647 106.27137,37.244467 106.27302,37.244586 106.27518,37.243708 106.27552,37.243227 106.27586,37.243934 106.27658,37.244228 106.2772,37.244114 106.27876,37.243272 106.28039,37.243487 106.2823,37.243362 106.28279,37.243087 106.28401,37.241805 106.28404,37.241531 106.28292,37.240483 106.28266,37.240021 106.28285,37.239297 106.2841,37.238234 106.28548,37.237465 106.28603,37.237388 106.2863,37.237443 106.28742,37.238255 106.28961,37.239069 106.2912,37.240296 106.29139,37.240637 106.29135,37.240872 106.28961,37.242438 106.28958,37.243183 106.28969,37.243276 106.29181,37.243059 106.29391,37.24317 106.29622,37.243575 106.2971,37.243852 106.2974,37.244081 106.29714,37.244542 106.29648,37.245101 106.29537,37.245685 106.29532,37.245877 106.29581,37.24649 106.29657,37.246808 106.29815,37.246574 106.29912,37.246713 106.29987,37.247401 106.29997,37.248624 106.30011,37.248986 106.30041,37.249252 106.30289,37.249932 106.3042,37.250527 106.30482,37.250952 106.30524,37.251689 106.30519,37.252924 106.30554,37.253588 106.30631,37.25407 106.30746,37.253634 106.30788,37.253698 106.30832,37.254038 106.30898,37.254914 106.30939,37.255767 106.3096,37.256492 106.30954,37.257473 106.31035,37.259054 106.3111,37.261547 106.3123,37.264168 106.31319,37.264919 106.31576,37.26655 106.31664,37.267381 106.31702,37.268157 106.3172,37.269769 106.31788,37.271108 106.31983,37.273127 106.32115,37.273783 106.32156,37.274136 106.32362,37.276813 106.32454,37.27927 106.32446,37.280218 106.32364,37.28161 106.32446,37.283993 106.32443,37.286215 106.3256,37.288119 106.32586,37.28903 106.32574,37.291059 106.32529,37.293074 106.3253,37.293982 106.32614,37.295768 106.32613,37.29777 106.32685,37.299872 106.32764,37.30322 106.32771,37.305323 106.32797,37.305922 106.32947,37.308081 106.33,37.310256 106.33009,37.31112 106.32981,37.314298 106.32919,37.316064 106.32838,37.317354 106.32776,37.318854 106.3269,37.31998 106.32599,37.322819 106.32567,37.323446 106.32444,37.325083 106.3219,37.327458 106.32137,37.328336 106.32047,37.330368 106.31984,37.331287 106.31887,37.332082 106.31758,37.332809 106.31739,37.333059 106.31736,37.334656 106.31626,37.337328 106.31593,37.338907 106.3156,37.339555 106.31491,37.340043 106.31419,37.34023 106.31247,37.340155 106.31179,37.340309 106.31165,37.340578 106.31203,37.342226 106.31159,37.342513 106.31027,37.342934 106.30893,37.343757 106.30746,37.346293 106.30457,37.348003 106.30425,37.348448 106.30365,37.349949 106.30209,37.351337 106.30165,37.35255 106.30111,37.353225 106.29994,37.353793 106.29787,37.354053 106.29598,37.35604 106.29524,37.356399 106.29182,37.356939 106.29004,37.356724 106.28755,37.35673 106.28578,37.356538 106.28532,37.356906 106.28478,37.358108 106.28422,37.358388 106.28382,37.358419 106.28241,37.358126 106.28048,37.358383 106.27886,37.357864 106.27821,37.357901 106.27733,37.358598 106.27558,37.360537 106.27504,37.360747 106.27466,37.360678 106.27354,37.359639 106.27309,37.359377 106.27231,37.359411 106.27148,37.359693 106.27079,37.359763 106.26898,37.359429 106.26829,37.359562 106.26721,37.360122"/>
	<polyline id="15" points="106.29105,37.353804 106.28763,37.351304 106.28715,37.351033 106.28626,37.350843 106.28496,37.351278 106.28373,37.351499 106.28314,37.351976 106.28233,37.353179 106.28204,37.353267 106.28045,37.352424 106.27961,37.352432 106.27882,37.352962 106.27792,37.353154 106.27724,37.353459 106.27544,37.354678 106.27482,37.353923 106.27344,37.352894 106.27281,37.351871 106.27223,37.351298 106.27198,37.351241 106.2705,37.351619 106.26881,37.351365 106.26718,37.350117 106.26521,37.349329 106.2643,37.348742 106.26376,37.348086 106.26382,37.347895 106.26551,37.347481 106.26596,37.347033 106.26568,37.346373 106.26507,37.345511 106.26466,37.342999 106.26416,37.342393 106.26369,37.342121 106.26321,37.342272 106.26237,37.343118 106.26171,37.343172 106.26121,37.342908 106.26098,37.342207 106.26103,37.341808 106.26112,37.341432 106.26157,37.340694 106.26157,37.340367 106.26134,37.339968 106.26059,37.339385 106.2603,37.338937 106.26028,37.337669 106.26013,37.337208 106.2589,37.335521 106.25818,37.332888 106.25827,37.331261 106.25817,37.329671 106.25688,37.327631 106.25683,37.326804 106.25724,37.325545 106.25729,37.324774 106.25716,37.3246 106.25523,37.323758 106.25455,37.32307 106.25446,37.322691 106.25475,37.321781 106.256,37.320135 106.25624,37.319447 106.25593,37.317639 106.2562,37.316106 106.25603,37.31563 106.25487,37.314282 106.25465,37.31366 106.25474,37.313399 106.25509,37.313071 106.25664,37.312453 106.25689,37.311829 106.25687,37.311384 106.25654,37.310689 106.25471,37.309776 106.25542,37.308773 106.25677,37.30803 106.2573,37.307343 106.25748,37.306323 106.25724,37.305603 106.25669,37.304762 106.25651,37.303816 106.25736,37.302418 106.25771,37.301035 106.25858,37.299812 106.25866,37.299015 106.25844,37.29767 106.25869,37.296598 106.25948,37.295729 106.26102,37.294743 106.26088,37.294 106.26001,37.292578 106.2599,37.292193 106.25999,37.291412 106.26042,37.290451 106.26091,37.289781 106.26307,37.288231 106.26272,37.287346 106.26271,37.286569 106.26317,37.286259 106.26424,37.285928 106.26454,37.285682 106.26466,37.285435 106.26472,37.284001 106.26581,37.283383 106.26601,37.283132 106.26601,37.281961 106.2662,37.281334 106.2671,37.280574 106.2685,37.279783 106.26862,37.279505 106.26863,37.278261 106.26877,37.27754 106.26977,37.276251 106.27003,37.275628 106.26995,37.274774 106.26924,37.272746 106.26921,37.271888 106.26941,37.27118 106.26968,37.270965 106.27055,37.270715 106.27219,37.268289 106.27203,37.26788 106.27131,37.266975 106.26976,37.265988 106.26894,37.265309 106.26858,37.264521 106.26858,37.264127 106.26885,37.263566 106.27018,37.262415 106.27089,37.26149 106.27083,37.260745 106.27049,37.260408 106.27004,37.260209 106.26888,37.259953 106.26865,37.259786 106.26853,37.259112 106.26877,37.258434 106.26969,37.257385 106.27029,37.256247 106.27064,37.254736 106.27061,37.254026 106.27037,37.253276 106.27046,37.252623 106.27061,37.252471 106.27114,37.252362 106.27385,37.252753 106.27456,37.252675 106.27468,37.252533 106.27464,37.252347 106.27382,37.25128 106.27337,37.250278 106.27339,37.249439 106.27375,37.249015 106.27542,37.248191 106.27779,37.248193 106.27854,37.248061 106.27959,37.247384 106.28159,37.24675 106.28291,37.246847 106.28379,37.247199 106.28416,37.247546 106.28516,37.249029 106.28556,37.249468 106.28621,37.249888 106.28634,37.24988 106.28729,37.248896 106.28787,37.248913 106.28825,37.249479 106.28945,37.252441 106.28971,37.252845 106.29036,37.253318 106.2906,37.253321 106.29085,37.25284 106.29088,37.250753 106.29123,37.249866 106.29252,37.249082 106.29311,37.248994 106.29377,37.249138 106.29447,37.24964 106.29511,37.25045 106.29608,37.253741 106.29639,37.254266 106.29715,37.254666 106.29763,37.254722 106.29875,37.254422 106.29943,37.25465 106.3001,37.25701 106.30048,37.257591 106.30124,37.257398 106.30201,37.256566 106.30249,37.256658 106.30289,37.256908 106.30326,37.257342 106.30323,37.258132 106.30245,37.25907 106.30193,37.26007 106.30178,37.260708 106.30205,37.260965 106.30237,37.260989 106.30465,37.260504 106.30532,37.260624 106.30548,37.26079 106.30555,37.26141 106.30533,37.262282 106.30537,37.263158 106.30635,37.264072 106.30702,37.265381 106.30793,37.266549 106.30858,37.26819 106.30918,37.269032 106.30934,37.269554 106.30925,37.270794 106.30944,37.271438 106.31045,37.272354 106.31113,37.274019 106.31368,37.278172 106.31428,37.28067 106.31535,37.281502 106.31524,37.282064 106.31533,37.282785 106.31631,37.284796 106.31646,37.285585 106.31601,37.28707 106.3155,37.28806 106.31532,37.289772 106.31453,37.291078 106.31444,37.291605 106.31482,37.293435 106.31625,37.295625 106.31688,37.297415 106.31698,37.298764 106.31665,37.301069 106.31776,37.304022 106.31785,37.30488 106.31746,37.30645 106.31749,37.306883 106.31826,37.30891 106.31865,37.311334 106.31833,37.313545 106.31761,37.315248 106.31725,37.316738 106.31519,37.321188 106.31334,37.323928 106.31332,37.325992 106.31258,37.327312 106.3126,37.328925 106.31217,37.329524 106.31094,37.330654 106.30978,37.332977 106.30958,37.333931 106.30933,37.334441 106.30697,37.336278 106.30518,37.337021 106.30493,37.337232 106.3044,37.338171 106.30335,37.338923 106.30323,37.339214 106.30319,37.340417 106.30308,37.3407 106.30262,37.341116 106.30124,37.341761 106.29936,37.341993 106.29909,37.342529 106.29964,37.344835 106.29898,37.346255 106.29894,37.347013 106.29874,37.34757 106.29783,37.348261 106.2963,37.348825 106.29627,37.34923 106.29654,37.350314 106.29639,37.350534 106.29545,37.350901 106.29306,37.352261 106.2927,37.352692 106.29237,37.353679 106.29217,37.353835 106.2915,37.353899 106.29105,37.353804"/>
	<polyline id="16" points="106.29428,37.346324 106.29277,37.346995 106.29217,37.348057 106.29177,37.348499 106.29084,37.349188 106.29014,37.34944 106.28967,37.349375 106.288,37.348569 106.2866,37.348129 106.28289,37.346313 106.28264,37.346756 106.28201,37.34899 106.28171,37.34916 106.28128,37.349176 106.28023,37.348784 106.27962,37.348801 106.27854,37.349377 106.27746,37.350391 106.27699,37.350544 106.27639,37.35017 106.27623,37.349752 106.27638,37.348168 106.27616,37.347721 106.27542,37.347331 106.27496,37.347311 106.27266,37.347741 106.27218,37.347987 106.27181,37.347199 106.27152,37.345758 106.27162,37.345491 106.27239,37.344833 106.2725,37.344547 106.27223,37.344174 106.27142,37.343647 106.26851,37.342634 106.2677,37.342089 106.26749,37.341648 106.26755,37.340872 106.26815,37.340267 106.26965,37.339694 106.26926,37.339029 106.26853,37.338626 106.26712,37.338161 106.26396,37.337493 106.26366,37.337159 106.263,37.335923 106.2619,37.334674 106.26181,37.334263 106.26204,37.333672 106.26268,37.333001 106.26329,37.331623 106.264,37.331124 106.26542,37.330718 106.26559,37.330623 106.2656,37.330454 106.26473,37.329613 106.26347,37.32924 106.26273,37.328787 106.26254,37.328014 106.26251,37.327125 106.26226,37.326641 106.26156,37.325946 106.26128,37.325267 106.2614,37.324714 106.26175,37.324247 106.26336,37.322956 106.26394,37.322326 106.26374,37.321869 106.26234,37.320727 106.26219,37.320411 106.26248,37.319657 106.26391,37.318064 106.26094,37.31751 106.26065,37.317413 106.26047,37.316954 106.26056,37.316391 106.26146,37.314023 106.26153,37.31167 106.26184,37.310178 106.2631,37.307316 106.26486,37.305749 106.26491,37.305474 106.2647,37.305102 106.26301,37.303861 106.263,37.303039 106.26392,37.301933 106.26403,37.301643 106.26406,37.301327 106.26362,37.299857 106.26366,37.29948 106.26391,37.298981 106.26493,37.297975 106.26524,37.297325 106.26517,37.295654 106.26539,37.294959 106.2657,37.29461 106.26681,37.293886 106.26686,37.293112 106.26614,37.291958 106.26608,37.291547 106.26628,37.290863 106.26729,37.289566 106.26791,37.28801 106.26967,37.286521 106.26924,37.28487 106.27096,37.283146 106.27147,37.282453 106.27152,37.282181 106.27122,37.280816 106.2714,37.279916 106.27138,37.278944 106.2721,37.277204 106.27262,37.275248 106.27295,37.274784 106.2743,37.274479 106.27485,37.274191 106.27525,37.273229 106.27513,37.272321 106.27467,37.271413 106.27491,37.270614 106.2755,37.269857 106.27706,37.269251 106.2775,37.268928 106.27745,37.268162 106.27687,37.267408 106.27462,37.266818 106.27392,37.266187 106.27339,37.263616 106.27354,37.262863 106.27398,37.262157 106.27499,37.261476 106.27603,37.260421 106.27666,37.26013 106.27808,37.259999 106.27814,37.259778 106.27759,37.25828 106.27772,37.257978 106.27864,37.257508 106.27889,37.257181 106.27885,37.256532 106.27842,37.255742 106.27838,37.255319 106.27844,37.254971 106.27892,37.254199 106.27893,37.252644 106.27904,37.252366 106.27928,37.25209 106.28078,37.251784 106.28132,37.251547 106.28178,37.252297 106.28214,37.252624 106.28252,37.25277 106.28295,37.252813 106.28451,37.252384 106.28549,37.252963 106.28713,37.253255 106.28969,37.25589 106.29126,37.257044 106.2925,37.257673 106.29329,37.257719 106.29356,37.257504 106.29406,37.256054 106.29439,37.255958 106.29464,37.25595 106.29541,37.256288 106.29679,37.257317 106.29744,37.258182 106.29756,37.259069 106.29749,37.260746 106.2974,37.261123 106.29708,37.261552 106.29865,37.262164 106.29882,37.262401 106.29882,37.263324 106.29825,37.264865 106.29827,37.265254 106.29841,37.265646 106.29986,37.266716 106.30058,37.267677 106.30082,37.268603 106.30068,37.269403 106.3004,37.269864 106.30109,37.270081 106.30168,37.269863 106.3031,37.268059 106.30357,37.266389 106.30376,37.266331 106.30398,37.266575 106.30416,37.268205 106.30479,37.270547 106.30471,37.270839 106.30385,37.271637 106.30268,37.272205 106.30245,37.272451 106.30237,37.272763 106.30191,37.27317 106.30456,37.273209 106.30534,37.273587 106.30582,37.273984 106.30639,37.274811 106.30657,37.275687 106.30711,37.276893 106.3079,37.277734 106.30874,37.27821 106.30868,37.278974 106.30969,37.279856 106.30973,37.280491 106.3096,37.28071 106.30854,37.281655 106.30652,37.283111 106.30524,37.28483 106.30542,37.284961 106.30612,37.285044 106.30691,37.284975 106.30908,37.284328 106.31034,37.284278 106.31113,37.284562 106.3114,37.284854 106.31172,37.286134 106.31158,37.286884 106.31106,37.287522 106.30919,37.289003 106.30754,37.289857 106.30533,37.291478 106.30867,37.291797 106.30956,37.292093 106.30997,37.292366 106.31052,37.293099 106.31078,37.295194 106.31171,37.297313 106.31153,37.29805 106.311,37.298766 106.31092,37.299065 106.31169,37.300619 106.3117,37.301925 106.31156,37.303059 106.31092,37.304047 106.31084,37.304791 106.31143,37.306391 106.3118,37.308117 106.31221,37.308925 106.31232,37.309649 106.31196,37.310104 106.31022,37.310757 106.30887,37.311588 106.30853,37.311992 106.30857,37.312265 106.30884,37.312544 106.31076,37.313934 106.31112,37.314343 106.31133,37.314994 106.31102,37.315434 106.31003,37.316034 106.30956,37.318088 106.30774,37.319945 106.3076,37.320263 106.30753,37.32063 106.30869,37.322138 106.30868,37.322529 106.30838,37.323523 106.30804,37.324054 106.30666,37.324769 106.30626,37.325184 106.30616,37.32568 106.30657,37.32802 106.30646,37.33003 106.30621,37.330521 106.30525,37.331203 106.30485,37.332499 106.30426,37.332822 106.30287,37.333018 106.3024,37.333371 106.30213,37.333976 106.30153,37.336251 106.30068,37.337097 106.3002,37.337264 106.29898,37.337269 106.29692,37.337897 106.2957,37.33876 106.29432,37.339417 106.29339,37.34015 106.29219,37.340574 106.29183,37.341019 106.29171,37.341379 106.29182,37.342058 106.29368,37.34288 106.29384,37.343292 106.29377,37.343828 106.29447,37.344271 106.29479,37.344636 106.29491,37.345019 106.29481,37.345759 106.29464,37.346065 106.29428,37.346324"/>
	<polyline id="17" points="106.29709,37.267726 106.29802,37.268284 106.29816,37.268925 106.29791,37.269856 106.29712,37.270717 106.29486,37.272623 106.29376,37.273219 106.2945,37.273521 106.29715,37.273684 106.29805,37.274119 106.29847,37.27489 106.2986,37.275783 106.29789,37.27728 106.29792,37.27818 106.29834,37.277888 106.30037,37.277322 106.30132,37.277079 106.30211,37.277045 106.30307,37.278242 106.3035,37.279063 106.30364,37.279874 106.30454,37.280938 106.30476,37.281382 106.30462,37.282046 106.30365,37.283088 106.30217,37.284068 106.30044,37.284848 106.29932,37.285766 106.29854,37.286625 106.29789,37.287706 106.29772,37.288262 106.29797,37.288589 106.29876,37.288686 106.3021,37.287823 106.30293,37.287796 106.3055,37.288133 106.30484,37.288372 106.30388,37.289634 106.30271,37.290456 106.30193,37.291335 106.30056,37.292482 106.30018,37.29324 106.29984,37.295135 106.29963,37.295686 106.29874,37.296458 106.29991,37.2968 106.30111,37.296666 106.30395,37.294909 106.30547,37.294613 106.30685,37.293822 106.30755,37.29378 106.30797,37.294025 106.30787,37.296507 106.30705,37.297287 106.30495,37.298171 106.3045,37.298959 106.30553,37.299819 106.30621,37.302181 106.30605,37.302413 106.30496,37.303138 106.30461,37.303612 106.30452,37.304031 106.30524,37.305527 106.30659,37.306504 106.30725,37.307253 106.30749,37.308096 106.30743,37.30849 106.30731,37.308812 106.30693,37.309156 106.30505,37.309492 106.3041,37.310063 106.3034,37.310322 106.30032,37.310791 106.2994,37.311241 106.29935,37.311467 106.30004,37.311972 106.30324,37.313379 106.30408,37.31399 106.30465,37.314712 106.30461,37.315302 106.30417,37.316409 106.30427,37.31811 106.30384,37.318995 106.30194,37.319922 106.30002,37.320596 106.29873,37.3214 106.29996,37.322125 106.30168,37.322705 106.30234,37.323104 106.30217,37.323644 106.30118,37.324606 106.30139,37.325093 106.30276,37.326215 106.30293,37.326555 106.30263,37.327235 106.30176,37.327784 106.30159,37.328063 106.30163,37.328391 106.30221,37.329634 106.30222,37.329965 106.30199,37.330452 106.30117,37.330785 106.29917,37.330969 106.29826,37.331355 106.29786,37.331694 106.29767,37.332284 106.29838,37.333529 106.29844,37.333889 106.29808,37.334522 106.29747,37.334992 106.29692,37.335103 106.29551,37.334593 106.29456,37.334673 106.29418,37.335079 106.29386,37.336154 106.2936,37.336496 106.29219,37.337189 106.29076,37.337153 106.28979,37.337854 106.2894,37.338529 106.28917,37.339645 106.28878,37.340206 106.28807,37.340372 106.28677,37.340202 106.28608,37.340328 106.28593,37.340573 106.28609,37.342248 106.28549,37.343843 106.28512,37.344213 106.28268,37.343667 106.27965,37.343392 106.2793,37.343512 106.27894,37.344076 106.27887,37.345276 106.27882,37.345474 106.27865,37.34555 106.2779,37.345172 106.27749,37.344679 106.27729,37.343723 106.27729,37.342871 106.27714,37.34241 106.27691,37.342172 106.27645,37.341982 106.27376,37.3416 106.273,37.341342 106.27544,37.340026 106.27564,37.339814 106.27569,37.339531 106.27549,37.339138 106.27449,37.338035 106.27408,37.337166 106.27377,37.336791 106.27334,37.33663 106.27212,37.336552 106.2706,37.33549 106.27033,37.335449 106.26917,37.335754 106.26836,37.335696 106.26721,37.33502 106.26676,37.334609 106.26658,37.334142 106.26663,37.333863 106.2669,37.33363 106.27021,37.331392 106.27151,37.329131 106.27152,37.328903 106.27102,37.328616 106.268,37.328393 106.26723,37.328157 106.26671,37.327562 106.2656,37.325541 106.26554,37.324787 106.26634,37.325154 106.26726,37.325251 106.26762,37.325091 106.26801,37.324687 106.26802,37.322149 106.2685,37.321374 106.26874,37.320669 106.26875,37.319021 106.26847,37.31805 106.2681,37.317319 106.26736,37.3168 106.26708,37.316437 106.26697,37.316068 106.26721,37.314782 106.26712,37.314228 106.26691,37.314001 106.26651,37.313869 106.26547,37.31388 106.26491,37.313487 106.26457,37.312794 106.2649,37.310498 106.26575,37.309182 106.26625,37.30798 106.26682,37.307743 106.26893,37.307308 106.26967,37.306806 106.26993,37.306295 106.26936,37.305687 106.26804,37.305137 106.26757,37.304774 106.26708,37.303975 106.2669,37.303159 106.26698,37.302404 106.26787,37.300688 106.26794,37.299916 106.26778,37.299069 106.26798,37.298417 106.26833,37.298072 106.26966,37.297319 106.26922,37.295979 106.26916,37.295593 106.26931,37.295258 106.27083,37.294264 106.27138,37.293577 106.27163,37.293023 106.27154,37.292398 106.26976,37.291584 106.26956,37.291386 106.26943,37.290756 106.26968,37.290195 106.27022,37.289469 106.27195,37.287448 106.27365,37.286576 106.27396,37.286299 106.27405,37.2856 106.27314,37.284397 106.27302,37.283945 106.27459,37.282246 106.27563,37.281589 106.27635,37.280757 106.27626,37.280546 106.27463,37.279932 106.27397,37.279427 106.27378,37.278755 106.27407,37.277286 106.27431,37.27699 106.27467,37.27687 106.27596,37.277016 106.2763,37.276936 106.27785,37.275545 106.27938,37.274578 106.2797,37.27411 106.27948,37.272871 106.2787,37.271514 106.2787,37.270882 106.279,37.270561 106.28085,37.269385 106.28102,37.26906 106.281,37.268711 106.28077,37.268256 106.27868,37.265628 106.27839,37.264903 106.27873,37.264327 106.27938,37.263794 106.28096,37.263241 106.28229,37.2617 106.28237,37.261416 106.28226,37.260711 106.28169,37.259424 106.28168,37.259071 106.28187,37.258801 106.28217,37.258623 106.28304,37.25865 106.28457,37.259398 106.28602,37.259706 106.28628,37.259616 106.28685,37.258744 106.28714,37.258572 106.28746,37.258605 106.28873,37.259197 106.29033,37.259482 106.29093,37.260738 106.29105,37.262443 106.29132,37.262792 106.29211,37.262803 106.29298,37.262363 106.29352,37.263968 106.29417,37.264394 106.29545,37.264707 106.29573,37.264925 106.29527,37.266294 106.2953,37.266611 106.29555,37.266965 106.29709,37.267726"/>
	<polyline id="18" points="106.28967,37.345493 106.28945,37.346091 106.28901,37.346494 106.28795,37.346392 106.28656,37.345563 106.28615,37.34517 106.28582,37.344668 106.28583,37.344215 106.28616,37.344023 106.28705,37.343838 106.28824,37.344013 106.28945,37.344574 106.28963,37.344864 106.28967,37.345493"/>
	<polyline id="19" points="106.29116,37.263213 106.29056,37.263012 106.2903,37.263082 106.29028,37.263255 106.2904,37.263485 106.29116,37.263213"/>
	<polyline id="20" points="106.30634,37.287315 106.30621,37.287516 106.30619,37.2873 106.30634,37.287315"/>
	<polyline id="21" points="106.29753,37.328481 106.29662,37.329636 106.29616,37.32997 106.29379,37.330558 106.29332,37.331786 106.29301,37.332253 106.29249,37.332518 106.29096,37.332797 106.29043,37.333012 106.28991,37.334195 106.2895,37.334588 106.2884,37.335148 106.28802,37.335615 106.2877,37.336409 106.28716,37.336897 106.28643,37.337107 106.28562,37.337132 106.28372,37.336347 106.28308,37.33689 106.28215,37.338016 106.28088,37.338416 106.28035,37.338721 106.28029,37.338991 106.28048,37.339411 106.28137,37.340655 106.28091,37.340905 106.27973,37.340617 106.27931,37.34008 106.27876,37.33887 106.27773,37.335394 106.27692,37.334714 106.2755,37.334122 106.27388,37.333181 106.27356,37.332921 106.27329,37.332168 106.27342,37.331398 106.27385,37.330893 106.27515,37.330221 106.2772,37.32886 106.27434,37.327767 106.27344,37.327129 106.27285,37.326412 106.27285,37.326164 106.27331,37.325478 106.27335,37.325128 106.27221,37.323141 106.27311,37.3223 106.27321,37.321722 106.27264,37.320547 106.27247,37.319693 106.27383,37.317971 106.27348,37.317264 106.27266,37.31636 106.27063,37.315185 106.2703,37.314793 106.2703,37.314026 106.27088,37.312607 106.27086,37.312205 106.27054,37.311777 106.27016,37.311485 106.26931,37.311171 106.26841,37.311043 106.26805,37.311434 106.268,37.311336 106.26807,37.310619 106.26855,37.309867 106.27054,37.308502 106.27159,37.30806 106.27327,37.308174 106.27384,37.308085 106.27457,37.307538 106.27488,37.307113 106.27485,37.306477 106.27461,37.306207 106.27331,37.305598 106.27216,37.304646 106.27134,37.304266 106.26962,37.303849 106.26939,37.303179 106.26939,37.302762 106.26964,37.302226 106.27077,37.30162 106.27122,37.301241 106.2714,37.300768 106.27109,37.299869 106.27112,37.299515 106.27264,37.298086 106.27268,37.297278 106.27242,37.296401 106.27257,37.295658 106.27336,37.294769 106.27502,37.293882 106.27555,37.293258 106.27555,37.293111 106.27462,37.292261 106.27413,37.290626 106.27349,37.289777 106.27339,37.289029 106.27387,37.288572 106.27534,37.288032 106.27632,37.2873 106.27686,37.2857 106.2767,37.283962 106.27677,37.283217 106.27935,37.280739 106.28058,37.279917 106.28053,37.279078 106.27939,37.278199 106.27944,37.277942 106.27997,37.277316 106.2813,37.276493 106.28195,37.275392 106.28242,37.273954 106.28211,37.272152 106.28223,37.271651 106.28316,37.270878 106.28389,37.269562 106.28465,37.268616 106.28549,37.267762 106.28618,37.267349 106.28663,37.26752 106.28724,37.268179 106.28747,37.268992 106.28737,37.269825 106.28744,37.270187 106.28758,37.270525 106.2879,37.270698 106.28893,37.270754 106.28972,37.270468 106.29083,37.269403 106.29129,37.268095 106.29148,37.269319 106.29172,37.269839 106.29215,37.270279 106.29269,37.270547 106.29387,37.270668 106.29322,37.270984 106.29276,37.271677 106.29183,37.272402 106.28967,37.27364 106.28816,37.275036 106.28713,37.275682 106.28683,37.276575 106.2869,37.277014 106.2873,37.277719 106.288,37.278151 106.28875,37.277665 106.28995,37.277295 106.29114,37.276418 106.29185,37.276365 106.29304,37.276522 106.29383,37.27623 106.29467,37.275735 106.29544,37.275629 106.29567,37.275777 106.29578,37.276459 106.2953,37.278314 106.29518,37.280362 106.29533,37.28143 106.29549,37.281577 106.297,37.281826 106.29792,37.281849 106.29846,37.281559 106.29924,37.28073 106.29971,37.28058 106.30028,37.281127 106.30067,37.282247 106.30055,37.282988 106.30041,37.283156 106.29927,37.283726 106.2971,37.285236 106.29584,37.286872 106.29414,37.287654 106.29316,37.28834 106.29128,37.289375 106.28978,37.290472 106.28952,37.290844 106.28948,37.291168 106.28948,37.291388 106.28965,37.29153 106.29032,37.291583 106.29223,37.291345 106.29428,37.291481 106.29624,37.291008 106.29783,37.291393 106.29794,37.29154 106.29798,37.292508 106.29792,37.293149 106.29771,37.293681 106.2973,37.294147 106.29542,37.294793 106.29474,37.295422 106.29359,37.29662 106.29328,37.297296 106.29337,37.297995 106.29394,37.298183 106.29518,37.298002 106.29598,37.298025 106.29791,37.298538 106.30033,37.298921 106.30048,37.299038 106.30133,37.301078 106.30215,37.302166 106.30206,37.30269 106.3011,37.304114 106.30099,37.304828 106.30123,37.305267 106.30241,37.30647 106.30262,37.306949 106.30258,37.307726 106.30224,37.308268 106.30167,37.308536 106.29961,37.308584 106.29807,37.308965 106.29681,37.30879 106.29624,37.30891 106.29551,37.30983 106.29408,37.310546 106.29289,37.31221 106.29171,37.312768 106.29155,37.313057 106.29188,37.313703 106.29239,37.313998 106.29409,37.314173 106.2956,37.3138 106.29632,37.3138 106.29918,37.31437 106.30003,37.314893 106.30024,37.315344 106.30028,37.315681 106.2999,37.316769 106.2997,37.318178 106.29921,37.31856 106.29837,37.318901 106.29613,37.319017 106.29546,37.319259 106.29526,37.319515 106.29511,37.320569 106.29492,37.320885 106.29248,37.323065 106.29204,37.323712 106.29202,37.323877 106.29217,37.324026 106.29286,37.324163 106.29368,37.324095 106.29629,37.323523 106.29711,37.323713 106.29748,37.324014 106.29776,37.324814 106.29745,37.326375 106.29772,37.327752 106.29753,37.328481"/>
	<polyline id="22" points="106.291,37.297288 106.29086,37.298141 106.2911,37.299504 106.29104,37.299857 106.29046,37.300624 106.28928,37.301566 106.28925,37.302201 106.28956,37.302407 106.29306,37.302364 106.29443,37.3016 106.29548,37.300195 106.29614,37.299917 106.29705,37.300094 106.29784,37.300495 106.29825,37.301036 106.2986,37.30202 106.29856,37.302808 106.29769,37.304067 106.29743,37.304754 106.29746,37.306021 106.29721,37.306497 106.29419,37.307053 106.29307,37.308211 106.29208,37.308902 106.29064,37.308857 106.29015,37.309015 106.28938,37.309855 106.28842,37.310644 106.28773,37.311532 106.28628,37.313006 106.28636,37.314055 106.2859,37.315621 106.28606,37.316295 106.28625,37.316441 106.28974,37.315572 106.29038,37.315724 106.292,37.316559 106.29233,37.31657 106.29311,37.316305 106.29381,37.316356 106.29407,37.316515 106.29397,37.31706 106.29378,37.317226 106.29253,37.317694 106.29215,37.318128 106.29197,37.318643 106.29227,37.320033 106.29209,37.320541 106.29124,37.320872 106.28888,37.321109 106.28855,37.321528 106.28854,37.322727 106.28842,37.323013 106.28768,37.323639 106.28738,37.324228 106.28758,37.325094 106.28832,37.326366 106.28868,37.327987 106.28886,37.32819 106.28961,37.328469 106.29045,37.32849 106.29077,37.328353 106.29159,37.327159 106.2921,37.326698 106.29277,37.326459 106.29359,37.326362 106.29391,37.326478 106.29415,37.327149 106.29402,37.327916 106.29365,37.328295 106.29167,37.32927 106.29055,37.330616 106.28863,37.331228 106.288,37.331852 106.28719,37.333098 106.28634,37.333868 106.28584,37.333851 106.28411,37.333239 106.28323,37.333155 106.28222,37.333542 106.28134,37.334384 106.28054,37.33483 106.27993,37.331307 106.28006,37.33054 106.28075,37.329188 106.28075,37.328406 106.28038,37.327686 106.27963,37.326898 106.27787,37.32628 106.27647,37.323764 106.27658,37.323002 106.27719,37.321487 106.27681,37.319783 106.2773,37.318354 106.27691,37.316895 106.27691,37.31561 106.27657,37.314887 106.27633,37.314732 106.27468,37.314379 106.27378,37.313893 106.274,37.312552 106.27371,37.311446 106.27376,37.310773 106.27389,37.310626 106.27513,37.310187 106.27617,37.308775 106.2773,37.308193 106.27774,37.307821 106.27806,37.307126 106.27768,37.306393 106.27621,37.304446 106.27541,37.304085 106.27426,37.303834 106.27386,37.303536 106.27347,37.303091 106.2733,37.302617 106.27332,37.302275 106.27464,37.300971 106.27494,37.300498 106.27511,37.299768 106.27536,37.296272 106.27589,37.295632 106.27736,37.294638 106.27812,37.293786 106.27847,37.293145 106.2784,37.292287 106.27715,37.29117 106.27688,37.290701 106.27679,37.289842 106.27691,37.289523 106.27732,37.289103 106.27876,37.288474 106.27912,37.288045 106.2795,37.285754 106.27943,37.284528 106.27963,37.283496 106.2799,37.28307 106.28047,37.282633 106.28201,37.282265 106.28319,37.281351 106.28354,37.28072 106.28326,37.278987 106.28349,37.278735 106.28421,37.278649 106.28477,37.279034 106.28504,37.280713 106.28572,37.281563 106.28624,37.281867 106.2877,37.282153 106.2885,37.282146 106.28899,37.281747 106.28937,37.280795 106.28981,37.280576 106.29019,37.280644 106.29127,37.281193 106.29267,37.281505 106.2929,37.281741 106.29348,37.283608 106.29406,37.284803 106.29411,37.285558 106.29369,37.285973 106.29272,37.286573 106.29171,37.286927 106.29004,37.286934 106.28941,37.287138 106.28824,37.288863 106.28697,37.289972 106.28638,37.291559 106.28554,37.292394 106.28535,37.292924 106.28542,37.293936 106.28559,37.294174 106.28628,37.294416 106.28701,37.294218 106.28802,37.293688 106.28916,37.293466 106.29208,37.293448 106.29288,37.293669 106.29314,37.293939 106.29298,37.294479 106.29125,37.295598 106.29102,37.296521 106.291,37.297288"/>
	<polyline id="23" points="106.29242,37.305599 106.29133,37.306411 106.29035,37.306364 106.28987,37.306608 106.28713,37.308553 106.28612,37.309073 106.28497,37.310046 106.28299,37.310599 106.28205,37.311652 106.28136,37.313129 106.2809,37.313454 106.28008,37.313501 106.27806,37.31285 106.27728,37.312461 106.27712,37.31211 106.27779,37.31035 106.27816,37.309916 106.27956,37.308806 106.28026,37.307324 106.28015,37.306419 106.27865,37.304775 106.27834,37.303087 106.27754,37.301797 106.27752,37.30143 106.278,37.300614 106.27811,37.300065 106.27747,37.297637 106.27749,37.296835 106.27804,37.296093 106.27974,37.29487 106.28008,37.294411 106.28049,37.293132 106.28108,37.292422 106.28153,37.292193 106.28206,37.29224 106.28252,37.293085 106.28264,37.293989 106.28192,37.296128 106.28196,37.296481 106.28253,37.297211 106.28293,37.297465 106.28373,37.29756 106.28476,37.297361 106.28688,37.296518 106.2877,37.296414 106.28822,37.296645 106.28865,37.297404 106.2888,37.299014 106.28844,37.299464 106.28701,37.300494 106.28533,37.302912 106.28526,37.304022 106.28555,37.305249 106.2858,37.305517 106.28651,37.305695 106.28795,37.305173 106.2901,37.305296 106.2914,37.304735 106.29208,37.305113 106.29242,37.305599"/>
	<polyline id="24" points="106.28269,37.317779 106.28241,37.318303 106.28061,37.318933 106.28042,37.318883 106.27988,37.318352 106.27956,37.317782 106.2794,37.31646 106.27958,37.315457 106.27978,37.315258 106.28048,37.315273 106.28216,37.316784 106.28253,37.317249 106.28269,37.317779"/>
	<polyline id="25" points="106.28601,37.320559 106.28549,37.321889 106.28411,37.323054 106.2832,37.325006 106.28268,37.325356 106.28179,37.325103 106.28124,37.324657 106.27954,37.321933 106.27965,37.320871 106.27996,37.320501 106.28025,37.320384 106.28141,37.320565 106.28295,37.320106 106.28462,37.320075 106.28549,37.320163 106.28601,37.320559"/>
	<polyline id="26" points="106.28697,37.285653 106.28672,37.286054 106.28622,37.288038 106.2847,37.289514 106.2824,37.290848 106.28206,37.290864 106.28167,37.290578 106.28132,37.289928 106.28187,37.288635 106.28217,37.286503 106.28386,37.284391 106.28459,37.284331 106.28623,37.284777 106.28697,37.285653"/>
	<polyline id="27" points="106.28242,37.304214 106.28229,37.304888 106.28196,37.304877 106.28124,37.304673 106.28105,37.30408 106.28142,37.303635 106.28178,37.303654 106.28213,37.303704 106.28242,37.304214"/>
</g>
</g>
</svg>
