<?xml version="1.0" encoding="utf-8"?>
<!-- Generator: Adobe Illustrator 16.0.0, SVG Export Plug-In . SVG Version: 6.00 Build 0)  -->
<!DOCTYPE svg PUBLIC "-//W3C//DTD SVG 1.1//EN" "http://www.w3.org/Graphics/SVG/1.1/DTD/svg11.dtd">
<svg version="1.1" id="图层_1" xmlns="http://www.w3.org/2000/svg" xmlns:xlink="http://www.w3.org/1999/xlink" x="0px" y="0px"
	 width="595.28px" height="841.89px" viewBox="0 0 595.28 841.89" enable-background="new 0 0 595.28 841.89" xml:space="preserve">
<path fill="none" stroke="#000000" stroke-width="2" stroke-miterlimit="10" d="M256.716,334.558
	c-11.896-14.325-38.549-40.557-32.264-114.006c-8.286,41.282-1.963,81.115,28.455,114.759c-3.558,1.05-7.52,3.079-8.868,4.746
	c-28.695-33.055-114.029-41.466-141.76-14.803c49.064-24.251,119.064-5.251,138.828,17.254
	c-16.097,34.161,9.569,52.637,19.519,47.465c1.621,5.172,4.027,7.696,8.232,10.343C77.344,416.327,26.677,551.327,14.775,647.328
	c114.235-40.335,178.235,110.665,249.325,20.574c171.233,55.091,214.24-72.279,283.174-72.279
	c-17.089-6.962-29.274-25.628-63.59-36.661c-19.294-2.634-54.018-25.675-26.571-35.538c15.005,14.59,46.887,28.904,59.179,25.394
	c0.262-11.156-7.625-23.093-37.951-46.187c26.326-10.634,64.659,51.366,103.689,62.533C562.334,477,615,401.333,534.667,328.096
	c-0.001-24.433,18-32.1,8.213-59.009c-27.213-74.753-126.546-70.42-94.812-156.191c-83.401,10.771-171.735,108.771-150.981,252.331
	c-5.006-5.631-9.837-7.279-15.834-8.778C283.667,347.167,273.333,332.333,256.716,334.558z"/>
</svg>
