<?xml version="1.0" encoding="utf-8"?>
<!-- Generator: Adobe Illustrator 16.0.0, SVG Export Plug-In . SVG Version: 6.00 Build 0)  -->
<!DOCTYPE svg PUBLIC "-//W3C//DTD SVG 1.1//EN" "http://www.w3.org/Graphics/SVG/1.1/DTD/svg11.dtd">
<svg version="1.1" id="图层_1" xmlns="http://www.w3.org/2000/svg" xmlns:xlink="http://www.w3.org/1999/xlink" x="0px" y="0px"
	 width="595.279px" height="841.89px" viewBox="0 0 595.279 841.89" enable-background="new 0 0 595.279 841.89"
	 xml:space="preserve">
<path fill="none" stroke="#000000" stroke-miterlimit="10" d="M154.656,761.578c-4.669-6.127-9.046-12.451-13.229-18.967
	c-13.715-21.594-23.246-44.451-23.538-66.434c-0.39-43.383,16.729-73.438,28.597-103.785c10.311-26.264,16.729-52.816,4.377-88.514
	c-1.945-5.643,11.186,6.809,29.083,31.807c34.92-104.856,69.255-195.704,69.255-195.704s0.876,142.692,44.549,234.222
	c40.95,85.887,38.52,129.949,38.52,129.949c74.507-78.98,99.505-204.457,99.505-204.457c27.138,26.457,42.7,60.111,51.454,93.961
	c18.48,71.104-29.472,182.475-35.892,192.688c7.004-4.961,136.369-108.746,137.244-189.77
	c0.778-81.023-59.723-115.457-32.974-192.299c2.335-6.614-15.368,11.867-36.768,46.785
	c-21.106-72.172-34.627-130.533-105.244-199.496c0,0,13.034,156.99-61.959,270.6c0,0,26.358-88.806-16.828-236.654
	C287.62,117.662,348.704,44.517,348.704,44.517S148.431,151.124,89,438.648c-24.998-39.783-46.786-61.571-44.257-54.47
	c26.846,76.841-33.752,111.274-32.877,192.298c0.778,81.025,127.023,173.968,127.023,173.968L154.656,761.578z"/>
</svg>
